<svg xmlns="http://www.w3.org/2000/svg" viewBox="0 0 1005 1005"><defs><style>.cls-1{fill:#fff;}</style></defs><g id="ring"><path d="M502.48,259.21s-.73,129,33.52,140.11,109.48-93.65,109.48-93.65-76.41,103.92-55.24,133.06,143.61-11.42,143.61-11.42S611,466.47,611,502.49s122.89,75.17,122.89,75.17-122.44-40.55-143.61-11.41,55.24,133,55.24,133S570.26,594.53,536,605.66s-33.52,140.11-33.52,140.11.73-129-33.52-140.11S359.49,699.3,359.49,699.3s76.4-103.91,55.23-133-143.61,11.41-143.61,11.41S394,538.5,394,502.49s-122.89-75.18-122.89-75.18,122.44,40.55,143.61,11.42-55.23-133.06-55.23-133.06S434.71,410.45,469,399.32,502.48,259.21,502.48,259.21Z"/><path class="cls-1" d="M451,465.53V455.26h25.87v61.52H464.51V465.53Z"/><path class="cls-1" d="M488,505h8.59a7.32,7.32,0,0,0,3.26,4,12.09,12.09,0,0,0,6.48,1.54,14.08,14.08,0,0,0,4.23-.5,3.61,3.61,0,0,0,2.08-1.47,4.2,4.2,0,0,0,.57-2.18,2.94,2.94,0,0,0-.93-2.33,7,7,0,0,0-2.87-1.33,48.32,48.32,0,0,0-4.94-.93c-2-.33-3.94-.74-5.8-1.22a21.09,21.09,0,0,1-4.94-1.89,9.71,9.71,0,0,1-3.41-3,7.77,7.77,0,0,1-1.25-4.48,8.48,8.48,0,0,1,1.25-4.58,10.42,10.42,0,0,1,3.51-3.37,18.38,18.38,0,0,1,5.3-2.08,29.06,29.06,0,0,1,6.56-.71,21.94,21.94,0,0,1,8.81,1.54,11,11,0,0,1,7,10.63h-8.24a5.92,5.92,0,0,0-2.29-3.83,9.45,9.45,0,0,0-5.3-1.18,10.53,10.53,0,0,0-5.3,1.07,3.29,3.29,0,0,0-1.79,2.94,2.74,2.74,0,0,0,1.11,2.33,8.9,8.9,0,0,0,3.29,1.32q2.19.51,5.48,1.08,2.79.57,5.34,1.29a21.6,21.6,0,0,1,4.55,1.82,8.83,8.83,0,0,1,3.18,2.94,8.34,8.34,0,0,1,1.19,4.62,8.76,8.76,0,0,1-2,5.8,12.27,12.27,0,0,1-5.63,3.62,26.84,26.84,0,0,1-8.73,1.25,27.8,27.8,0,0,1-7.78-1,18.05,18.05,0,0,1-5.4-2.51,13.1,13.1,0,0,1-3.34-3.3,11.75,11.75,0,0,1-1.61-3.33A6.6,6.6,0,0,1,488,505Z"/><path class="cls-1" d="M527.33,481.18H555v7.24H527.33Zm9.17-9.74h9.31v45.34H536.5Z"/><path class="cls-1" d="M438.62,534.25H444l.26,5.7v24.36h-5.6Zm15.61,22a10.7,10.7,0,0,1-4.85-1,9.14,9.14,0,0,1-3.26-2.67,11.65,11.65,0,0,1-1.85-3.65,13,13,0,0,1-.61-3.88,15.81,15.81,0,0,1,.59-4.4,9.72,9.72,0,0,1,1.83-3.56,8.56,8.56,0,0,1,3.25-2.39,12.5,12.5,0,0,1,4.9-.86,11.86,11.86,0,0,1,5.82,1.42,10.93,10.93,0,0,1,4.12,3.95,12,12,0,0,1,0,11.77,10.77,10.77,0,0,1-4.14,3.9A12.1,12.1,0,0,1,454.23,556.2Zm-1.81-4.35a8.82,8.82,0,0,0,4-.86,6.44,6.44,0,0,0,2.63-2.4A6.88,6.88,0,0,0,460,545a6.62,6.62,0,0,0-2-5,7.69,7.69,0,0,0-5.58-1.9,10.2,10.2,0,0,0-4.16.82,7,7,0,0,0-3,2.35,6.32,6.32,0,0,0-1.08,3.73,6.4,6.4,0,0,0,1,3.6,6.67,6.67,0,0,0,2.84,2.4A10.34,10.34,0,0,0,452.42,551.85Z"/><path class="cls-1" d="M470.27,525.63h5.61v30.06h-5.61Z"/><path class="cls-1" d="M492,556.16a12.1,12.1,0,0,1-5.8-1.4,10.64,10.64,0,0,1-4.14-3.93,12,12,0,0,1,0-11.75,10.83,10.83,0,0,1,4.21-3.9,12.72,12.72,0,0,1,6-1.4,10.74,10.74,0,0,1,6,1.49,8.52,8.52,0,0,1,3.29,4,15,15,0,0,1,1,5.69,13.14,13.14,0,0,1-.6,3.86,11.63,11.63,0,0,1-1.86,3.62,9.07,9.07,0,0,1-3.28,2.68A10.85,10.85,0,0,1,492,556.16Zm1.81-4.31a10.43,10.43,0,0,0,4.4-.86,6.34,6.34,0,0,0,3.84-6,6.66,6.66,0,0,0-1-3.73,6.4,6.4,0,0,0-2.85-2.33,11,11,0,0,0-4.38-.8,7.78,7.78,0,0,0-5.56,1.88,6.54,6.54,0,0,0-2,5,6.71,6.71,0,0,0,.94,3.6,6.59,6.59,0,0,0,2.66,2.4A8.66,8.66,0,0,0,493.77,551.85Zm8.24-17.6h5.61v21.44H502.4c-.15-1.12-.25-2.12-.3-3S502,551,502,550.17Z"/><path class="cls-1" d="M538.15,547.23a8.82,8.82,0,0,1-1.79,4.83,9.75,9.75,0,0,1-4.34,3.09,18.4,18.4,0,0,1-6.55,1.05,18.68,18.68,0,0,1-7.1-1.27,11,11,0,0,1-4.91-3.75,11.48,11.48,0,0,1,0-12.31,11.13,11.13,0,0,1,4.91-3.8,18.49,18.49,0,0,1,7.1-1.29,17.83,17.83,0,0,1,6.51,1.06,9.83,9.83,0,0,1,4.29,3,8.76,8.76,0,0,1,1.83,4.78H533a6.13,6.13,0,0,0-2.72-3.36,9,9,0,0,0-4.78-1.21,10.31,10.31,0,0,0-4.08.78,6.85,6.85,0,0,0-2.93,2.3,6.58,6.58,0,0,0,2.91,10,10.84,10.84,0,0,0,4.1.75,9.11,9.11,0,0,0,4.94-1.21,6,6,0,0,0,2.6-3.45Z"/><path class="cls-1" d="M561.82,548.57h5.43a7.69,7.69,0,0,1-1.83,3.92,9.91,9.91,0,0,1-4,2.72,17.21,17.21,0,0,1-6.21,1,18.83,18.83,0,0,1-7.25-1.31,11.12,11.12,0,0,1-4.91-3.82,10.17,10.17,0,0,1-1.77-6,10.46,10.46,0,0,1,1.73-6,10.81,10.81,0,0,1,4.8-3.86,18.11,18.11,0,0,1,7.23-1.34,16.35,16.35,0,0,1,7,1.34,8.75,8.75,0,0,1,4.16,4,13.77,13.77,0,0,1,1.14,6.88H546.9a6.09,6.09,0,0,0,1.23,3,6.75,6.75,0,0,0,2.76,2.11,10.13,10.13,0,0,0,4.16.78,9.6,9.6,0,0,0,4.46-.93A4.35,4.35,0,0,0,561.82,548.57Zm-7.07-10.52a8.61,8.61,0,0,0-5,1.36,6.09,6.09,0,0,0-2.5,3.34h14.58a4.59,4.59,0,0,0-2-3.43A8.58,8.58,0,0,0,554.75,538.05Z"/><path d="M449.6,212.42,465.44,210l2.43,15.84L452,228.26Z"/><path d="M519.37,192.71a33.29,33.29,0,0,1,11,2.17,18.33,18.33,0,0,1,6.89,4.67,15.69,15.69,0,0,1,3.46,6.46,24.3,24.3,0,0,1,.74,7.51,22.6,22.6,0,0,1-1.64,7.45,17.07,17.07,0,0,1-4.31,6.18,18.77,18.77,0,0,1-7.37,4,31.51,31.51,0,0,1-10.87,1.06l-22.6-1.18,2.07-39.53Zm-16.18,31.8,14.29.74a21.29,21.29,0,0,0,7.36-.68,11.71,11.71,0,0,0,4.76-2.66,11,11,0,0,0,2.66-4,16,16,0,0,0,1-4.79,15.56,15.56,0,0,0-.49-4.8,10.34,10.34,0,0,0-2.23-4.16,11.86,11.86,0,0,0-4.46-3,22,22,0,0,0-7.25-1.42l-14.29-.75Z"/><path d="M559.49,220.77l-2.27,9.46,29.67,7.14-1.58,6.6-37.59-9L557,196.45l37.53,9-1.59,6.61L563.3,205,561,214.53l24.27,5.83-1.5,6.25Z"/><path d="M595.55,233.41l7.6,3.22a6.28,6.28,0,0,0,.31,4.22,11.29,11.29,0,0,0,3.06,4.15,18.68,18.68,0,0,0,5.32,3.28,16.51,16.51,0,0,0,5,1.39,6.24,6.24,0,0,0,3.5-.58,4.59,4.59,0,0,0,2-2.32,3,3,0,0,0-.14-2.82,10.63,10.63,0,0,0-3-2.85c-1.46-1-3.43-2.31-5.9-3.79a47.3,47.3,0,0,1-5.32-3.75,22.09,22.09,0,0,1-4-4.18,11.06,11.06,0,0,1-2-4.59,8.86,8.86,0,0,1,.69-5,9.86,9.86,0,0,1,4.21-4.86,12.93,12.93,0,0,1,7-1.47,27.56,27.56,0,0,1,9.41,2.4q7.89,3.33,10.72,8.49a11.71,11.71,0,0,1,.24,11l-7.32-3.1a6,6,0,0,0-.76-6,13.93,13.93,0,0,0-5.83-4.19,15.59,15.59,0,0,0-6.4-1.45,4,4,0,0,0-3.88,2.67,3.13,3.13,0,0,0-.19,2,4.84,4.84,0,0,0,1.35,2.14,24.42,24.42,0,0,0,3.21,2.62q2.1,1.48,5.31,3.45a43.58,43.58,0,0,1,5.32,3.68,18.63,18.63,0,0,1,3.67,3.88,9.05,9.05,0,0,1,1.6,4.29,10.21,10.21,0,0,1-.92,5,10.65,10.65,0,0,1-4.16,5,11.89,11.89,0,0,1-6.91,1.56,29.06,29.06,0,0,1-9.83-2.57,28.75,28.75,0,0,1-6.79-3.91,21,21,0,0,1-4.36-4.6,16.87,16.87,0,0,1-2.3-4.76,12.58,12.58,0,0,1-.52-4.34A8.72,8.72,0,0,1,595.55,233.41Z"/><path d="M651.92,230.53l7.08,4L639.46,269l-7.08-4Z"/><path d="M666.36,288.07a36,36,0,0,1-7.1-7.08,21.74,21.74,0,0,1-3.71-7.71,17,17,0,0,1,0-8,21.17,21.17,0,0,1,4-8,20.92,20.92,0,0,1,6.85-5.95,18.15,18.15,0,0,1,8.09-2.09,22.86,22.86,0,0,1,8.78,1.62,35.93,35.93,0,0,1,9,5.15,31.73,31.73,0,0,1,8,8.49,18.09,18.09,0,0,1,2.86,8.78,14,14,0,0,1-2.39,8.28l-6.21-4.77a10.48,10.48,0,0,0,.53-5,12.23,12.23,0,0,0-2-5.12,25.19,25.19,0,0,0-13.26-9.3,12.84,12.84,0,0,0-7.48.35,13.48,13.48,0,0,0-6,4.63,13.87,13.87,0,0,0-2.95,6.64,11,11,0,0,0,1.42,6.84,22.63,22.63,0,0,0,6.28,6.83,23.15,23.15,0,0,0,6.68,3.71,16.41,16.41,0,0,0,6.21.91,11.06,11.06,0,0,0,5.1-1.52l3.23,1q-5.45,5.76-12.22,6.11T666.36,288.07Zm14.41,10.06q1.15-1.5,2.86-3.32t3.54-3.6l3.38-3.3-14.35-11,3.16-4.13,18.73,14.39-11.74,15.28Z"/><path d="M724.38,332.91l-2.47-1.26,24.58-21.33,5.33,6.14L721.93,342.4l-5.33-6.14,2.63-44.65,2.47,1.26L697.31,314,692,307.9,721.87,282l5.33,6.14Z"/><path d="M768.51,397.54a15,15,0,0,1-8.78.6,17.7,17.7,0,0,1-8-4.57,33.37,33.37,0,0,1-6.69-9.52,37.93,37.93,0,0,1-3.37-9.7,22.86,22.86,0,0,1-.08-8.83,17.61,17.61,0,0,1,3.44-7.47,20.43,20.43,0,0,1,7.21-5.62,20.81,20.81,0,0,1,8.87-2.35,17.83,17.83,0,0,1,8.08,1.77,23,23,0,0,1,7,5.39,37.16,37.16,0,0,1,5.7,8.54,32.63,32.63,0,0,1,3.47,11.15,17.93,17.93,0,0,1-1.28,9.2,14.92,14.92,0,0,1-5.91,6.61l-3.58-7.24a10.51,10.51,0,0,0,2.79-4.35,12,12,0,0,0,.42-5.57,21.88,21.88,0,0,0-2.22-6.68,23,23,0,0,0-5.3-7.2A12.18,12.18,0,0,0,756,359.94a12.68,12.68,0,0,0-5.71,5.15,12.82,12.82,0,0,0-1.47,7.28,22.94,22.94,0,0,0,2.51,8.59,21.49,21.49,0,0,0,4,5.78,12.2,12.2,0,0,0,4.63,3,11.13,11.13,0,0,0,5,.54Z"/><path d="M763.48,433.63a33.11,33.11,0,0,1-1-13.67,19,19,0,0,1,4.65-10.08,22,22,0,0,1,21.35-5.62,19,19,0,0,1,9,6.48,38.1,38.1,0,0,1,6.88,26.12,19.1,19.1,0,0,1-4.67,10.05,22,22,0,0,1-21.35,5.62,19.11,19.11,0,0,1-9-6.46A33.09,33.09,0,0,1,763.48,433.63Zm6.8-1.79a23.28,23.28,0,0,0,3.61,7.94,12.52,12.52,0,0,0,5.8,4.48,13,13,0,0,0,17.54-10.62,22.94,22.94,0,0,0-.74-8.69,23.27,23.27,0,0,0-3.64-8,13,13,0,0,0-5.86-4.6,12.84,12.84,0,0,0-17.48,10.74A23.78,23.78,0,0,0,770.28,431.84Z"/><path d="M781.74,504.46,780.56,502l32.49-1.76.44,8.13L774,510.45l-.44-8.12L803,468.7l1.18,2.51L772,473l-.44-8.12L811,462.69l.44,8.13Z"/><path d="M804.9,536.72l-1,8.07-33.38-4.19,1-8.07Zm8-16-5.19,41.39-6.74-.85,5.2-41.39Z"/><path d="M780.59,575.15l-9.32-2.8-8.79,29.22-6.5-2,11.14-37L805,574l-11.12,37-6.5-2,8.78-29.17L786.74,577l-7.2,23.9L773.39,599Z"/><path d="M765.93,610.44l-3.64,7.41a6.34,6.34,0,0,0-4.23.07,11.42,11.42,0,0,0-4.31,2.82,18.93,18.93,0,0,0-3.58,5.13,16.4,16.4,0,0,0-1.66,4.91,6.18,6.18,0,0,0,.38,3.52,4.53,4.53,0,0,0,2.2,2.18,3,3,0,0,0,2.82,0,10.68,10.68,0,0,0,3-2.81q1.7-2.12,4.12-5.68a45.17,45.17,0,0,1,4.05-5.1,22,22,0,0,1,4.39-3.74,11.15,11.15,0,0,1,4.69-1.71,8.92,8.92,0,0,1,5,1,9.89,9.89,0,0,1,4.61,4.49,12.69,12.69,0,0,1,1.07,7.1,27.23,27.23,0,0,1-2.92,9.27Q778.1,647,772.8,649.5a11.72,11.72,0,0,1-11-.38l3.51-7.13a6.06,6.06,0,0,0,6-.42,14,14,0,0,0,4.52-5.59,15.51,15.51,0,0,0,1.8-6.3,4,4,0,0,0-2.44-4,3.14,3.14,0,0,0-2-.31,4.9,4.9,0,0,0-2.21,1.24,23.45,23.45,0,0,0-2.8,3q-1.59,2-3.74,5.11a45.21,45.21,0,0,1-4,5.11,18.57,18.57,0,0,1-4.08,3.44,9.17,9.17,0,0,1-4.38,1.36,10.2,10.2,0,0,1-4.93-1.2,10.67,10.67,0,0,1-4.81-4.44,12,12,0,0,1-1.17-7,34.06,34.06,0,0,1,7.4-16.23,21.43,21.43,0,0,1,4.84-4.1,17.14,17.14,0,0,1,4.89-2,12.71,12.71,0,0,1,4.36-.27A8.61,8.61,0,0,1,765.93,610.44Z"/><path d="M753.43,674.69l-4.7,6.64-27.46-19.42,4.69-6.64ZM768,664.38,743.9,698.45l-5.54-3.92,24.08-34.07Z"/><path d="M688.67,700.13l37.78,20.44-7,5.62-33-18.51,2-1.69L700,741.8l-7.3,5.86-32.46-19,2.09-1.6,10.9,36.18-6.87,5.51-11.87-41.21,7.78-6.23L694,739.84l-2,1.61-11.11-35.08Z"/><path d="M653.16,773.76,646,777.62l-18.79-34.83,7.16-3.86Z"/><path d="M583.55,769.81l2-1.87L597,798.43l-7.62,2.84-13.81-37.09,7.62-2.84L624,779.47l-2,1.87-11.27-30.26,7.63-2.84,13.81,37.08-7.63,2.84Z"/><path d="M553.77,792.84l-15.85,2.34-2.34-15.85L551.43,777Z"/><path d="M483.9,812.17a33.58,33.58,0,0,1-11-2.23,18.5,18.5,0,0,1-6.87-4.71,15.62,15.62,0,0,1-3.42-6.48,24.36,24.36,0,0,1-.7-7.52,22.9,22.9,0,0,1,1.68-7.44,17.16,17.16,0,0,1,4.34-6.15,18.85,18.85,0,0,1,7.4-4,31.65,31.65,0,0,1,10.87-1L508.77,774l-2.28,39.51Zm16.35-31.71L486,779.63a21.63,21.63,0,0,0-7.36.65,11.72,11.72,0,0,0-4.78,2.64,10.77,10.77,0,0,0-2.68,4,16,16,0,0,0-1,4.78,15.26,15.26,0,0,0,.46,4.8,10.37,10.37,0,0,0,2.21,4.18,11.8,11.8,0,0,0,4.45,3.07,22,22,0,0,0,7.23,1.46l14.29.83Z"/><path d="M444,783.89l2.32-9.44-29.63-7.3,1.62-6.6,37.53,9.25-9.46,38.43L408.85,799l1.63-6.59,29.57,7.29,2.36-9.56-24.23-6,1.53-6.24Z"/><path d="M407.93,771l-7.58-3.26a6.27,6.27,0,0,0-.29-4.22,11.33,11.33,0,0,0-3-4.16,19,19,0,0,0-5.3-3.32,16.54,16.54,0,0,0-5-1.41,6.25,6.25,0,0,0-3.5.56,4.55,4.55,0,0,0-2.06,2.31,3,3,0,0,0,.12,2.81,10.53,10.53,0,0,0,3,2.87q2.19,1.57,5.88,3.83a46.26,46.26,0,0,1,5.3,3.78,21.74,21.74,0,0,1,3.95,4.2,10.91,10.91,0,0,1,1.95,4.6,8.75,8.75,0,0,1-.71,5,9.87,9.87,0,0,1-4.24,4.84,12.88,12.88,0,0,1-7.05,1.43,27.47,27.47,0,0,1-9.4-2.45q-7.86-3.37-10.67-8.55a11.72,11.72,0,0,1-.18-11l7.31,3.14a6,6,0,0,0,.72,6,14,14,0,0,0,5.81,4.23,15.47,15.47,0,0,0,6.39,1.48,4,4,0,0,0,3.9-2.64,3.16,3.16,0,0,0,.2-2,4.86,4.86,0,0,0-1.34-2.14,24.12,24.12,0,0,0-3.2-2.64q-2.08-1.49-5.29-3.47a46.5,46.5,0,0,1-5.3-3.71,19.07,19.07,0,0,1-3.65-3.9,9.22,9.22,0,0,1-1.57-4.31,10.18,10.18,0,0,1,.94-5,10.68,10.68,0,0,1,4.2-5,11.88,11.88,0,0,1,6.91-1.52A33.92,33.92,0,0,1,401.7,754a21,21,0,0,1,4.34,4.63,16.65,16.65,0,0,1,2.27,4.77,12.54,12.54,0,0,1,.5,4.34A8.61,8.61,0,0,1,407.93,771Z"/><path d="M351.58,773.63l-7.05-4,19.72-34.31,7.05,4.05Z"/><path d="M337.46,716a35.88,35.88,0,0,1,7.06,7.11,21.79,21.79,0,0,1,3.67,7.73,17,17,0,0,1,0,8,23.06,23.06,0,0,1-10.9,13.88,18.26,18.26,0,0,1-8.09,2,22.91,22.91,0,0,1-8.78-1.67,35.41,35.41,0,0,1-8.93-5.2,31.77,31.77,0,0,1-7.94-8.52,18.12,18.12,0,0,1-2.8-8.81,14,14,0,0,1,2.42-8.26l6.19,4.81a10.57,10.57,0,0,0-.56,4.95,12.17,12.17,0,0,0,2,5.13A25.11,25.11,0,0,0,324,746.64a12.77,12.77,0,0,0,7.48-.31,13.51,13.51,0,0,0,6.05-4.59,14,14,0,0,0,3-6.63,11.09,11.09,0,0,0-1.38-6.85,22.67,22.67,0,0,0-6.25-6.86,22.94,22.94,0,0,0-6.66-3.74,16.21,16.21,0,0,0-6.2-.95,11,11,0,0,0-5.11,1.49l-3.22-1q5.46-5.74,12.25-6T337.46,716Zm-14.35-10.14c-.78,1-1.74,2.1-2.88,3.3s-2.33,2.4-3.56,3.59l-3.4,3.28,14.3,11.11-3.19,4.1-18.65-14.48,11.82-15.22Z"/><path d="M279.66,670.86l2.47,1.27-24.69,21.2-5.3-6.17,30-25.78,5.3,6.17-2.87,44.63-2.47-1.27,24.51-21,5.3,6.17-30,25.78-5.3-6.17Z"/><path d="M235.88,606a15.05,15.05,0,0,1,8.79-.55,17.71,17.71,0,0,1,8,4.61,33.67,33.67,0,0,1,6.64,9.56,37.74,37.74,0,0,1,3.31,9.71,22.67,22.67,0,0,1,0,8.84,17.53,17.53,0,0,1-3.47,7.45,20.49,20.49,0,0,1-7.25,5.58,20.79,20.79,0,0,1-8.88,2.3,17.79,17.79,0,0,1-8.07-1.81,23.18,23.18,0,0,1-7-5.43,37.15,37.15,0,0,1-5.65-8.57,32.64,32.64,0,0,1-3.41-11.17,17.86,17.86,0,0,1,1.33-9.19,14.93,14.93,0,0,1,5.94-6.58l3.54,7.25a10.69,10.69,0,0,0-2.81,4.34,12.09,12.09,0,0,0-.45,5.56,22.08,22.08,0,0,0,2.18,6.7,23.09,23.09,0,0,0,5.27,7.23,12.88,12.88,0,0,0,21.6-10.55,23.06,23.06,0,0,0-2.47-8.6,22,22,0,0,0-3.92-5.81,12.31,12.31,0,0,0-4.63-3.05,11.08,11.08,0,0,0-5-.57Z"/><path d="M241.11,569.91a33.16,33.16,0,0,1,1,13.67,19.07,19.07,0,0,1-4.71,10.06,19.78,19.78,0,0,1-9.92,5.61,20,20,0,0,1-11.47-.11,19.08,19.08,0,0,1-9-6.54,38,38,0,0,1-6.73-26.15,19.1,19.1,0,0,1,4.72-10,22,22,0,0,1,21.39-5.5,19.05,19.05,0,0,1,9,6.5A33,33,0,0,1,241.11,569.91Zm-6.81,1.75a23.25,23.25,0,0,0-3.57-8,12.55,12.55,0,0,0-5.77-4.52,13,13,0,0,0-17.6,10.53,22.91,22.91,0,0,0,.69,8.7,23.61,23.61,0,0,0,3.6,8,12.87,12.87,0,0,0,5.83,4.62A12.83,12.83,0,0,0,235,580.37,23.71,23.71,0,0,0,234.3,571.66Z"/><path d="M223.24,499l1.17,2.51-32.5,1.59-.4-8.13L231,493.05l.39,8.13-29.66,33.47-1.16-2.51,32.25-1.57.4,8.12-39.53,1.93-.39-8.13Z"/><path d="M192.18,482.52l5.42-41.36,6.73.88-5.42,41.37Zm8.07-15.9,1.06-8.07,33.35,4.37-1,8.07Z"/><path d="M224.77,428.33l9.3,2.85L243,402l6.49,2L238.17,441l-37.83-11.61,11.33-36.9,6.49,2-8.94,29.13,9.41,2.88L226,402.59l6.14,1.88Z"/><path d="M239.62,393.11l3.68-7.39a6.28,6.28,0,0,0,4.23-.05,11.34,11.34,0,0,0,4.33-2.79,18.89,18.89,0,0,0,3.61-5.11,16.72,16.72,0,0,0,1.69-4.9,6.32,6.32,0,0,0-.37-3.53,4.46,4.46,0,0,0-2.19-2.18,2.92,2.92,0,0,0-2.81,0,10.74,10.74,0,0,0-3,2.79q-1.69,2.1-4.15,5.66a45.93,45.93,0,0,1-4.07,5.08,22.18,22.18,0,0,1-4.41,3.71,11.15,11.15,0,0,1-4.7,1.69,8.9,8.9,0,0,1-4.94-1,9.89,9.89,0,0,1-4.59-4.51,12.75,12.75,0,0,1-1-7.11,27.12,27.12,0,0,1,3-9.25q3.81-7.67,9.13-10.18a11.76,11.76,0,0,1,11,.44l-3.55,7.12a6,6,0,0,0-6,.39,14,14,0,0,0-4.55,5.56,15.56,15.56,0,0,0-1.84,6.29,4.07,4.07,0,0,0,2.43,4.05,3.2,3.2,0,0,0,2,.31,4.89,4.89,0,0,0,2.21-1.22,24.61,24.61,0,0,0,2.81-3c1.08-1.33,2.33-3,3.77-5.09a44.78,44.78,0,0,1,4-5.08,18.53,18.53,0,0,1,4.1-3.43,9.2,9.2,0,0,1,4.39-1.33,10.26,10.26,0,0,1,4.93,1.22,10.77,10.77,0,0,1,4.78,4.47,12,12,0,0,1,1.13,7A34,34,0,0,1,257,387.85a21.37,21.37,0,0,1-4.87,4.07,16.9,16.9,0,0,1-4.89,2,12.44,12.44,0,0,1-4.36.25A8.61,8.61,0,0,1,239.62,393.11Z"/><path d="M237.86,339.15l24.27-33.93,5.53,3.95L243.39,343.1Zm14.62-10.23,4.73-6.62,27.36,19.57-4.73,6.62Z"/><path d="M317.37,303.83,279.7,283.19l7.05-5.59,32.84,18.69-2,1.68L306.31,262.1l7.33-5.81L346,275.44,343.9,277l-10.7-36.24,6.9-5.48,11.64,41.28-7.81,6.19L312.26,264.1l2-1.6,10.92,35.14Z"/><path d="M353.26,230.41l7.18-3.82,18.61,34.93-7.18,3.82Z"/><path d="M422.87,234.73l-2.05,1.86L409.63,206l7.64-2.79,13.6,37.16-7.64,2.79-40.78-18.35L384.5,223l11.11,30.33-7.64,2.8L374.36,219l7.64-2.8Z"/></g></svg>