<svg fill="none" height="100" viewBox="0 0 618 100" width="618" xmlns="http://www.w3.org/2000/svg"><g fill="#000"><path d="m492.158 71.093c-11.406-1.156-19.325-6.6623-22.788-17.368-3.252-10.0725-1.065-19.2961 6.955-26.3181 9.593-8.389 20.231-8.2403 31.306-2.0721l13.526-7.4105v8.931h-11.032c.381.6427.804 1.2595 1.266 1.8466 13.277 13.9098 6.615 36.6929-12.178 41.9018-5.458 1.5109-10.955 2.9163-16.308 4.691-3.001 1.0305-5.878 2.3898-8.581 4.053-1.03.6304-1.884 1.5111-2.483 2.5602-.598 1.049-.922 2.2324-.941 3.4401-.134 2.6477.83 4.1921 3.228 5.2761 3.022 1.367 6.154 1.2327 9.113.2255 2.788-.9352 5.455-2.1958 7.948-3.7557 2.743-1.7411 5.166-3.9906 7.732-6.0195 2.187-1.7267 4.317-3.5686 6.58-5.1706 7.195-5.0554 12.826-5.3768 20.596-1.2758 1.324-1.3095 2.72-2.5949 3.986-3.9955.362-.5118.544-1.1291.518-1.7555 0-12.8193-.019-25.637-.057-38.4531-.039-.1642-.092-.3247-.159-.4797l-5.861-4.1777 13.205-4.1633v6.8397l.575.2207 1.919-1.602c6.091-5.0507 12.898-7.2715 20.711-4.902 7.813 2.3694 12.428 9.0653 12.471 18.1018.053 8.9166.077 17.838-.029 26.7546-.029 2.1584.48 3.8372 2.11 5.2761 1.281 1.1272 2.346 2.4989 3.871 4.1585h-19.157c1.708-1.8418 3.022-3.3575 4.47-4.7725.52-.4888.925-1.0861 1.187-1.7493.262-.6633.374-1.3761.329-2.0878-.048-9.158-.048-18.3161 0-27.4741 0-5.1658-1.439-9.7368-5.319-13.3293-4.466-4.125-10.437-4.7581-15.718-1.7267-.557.3165-1.07.7002-1.617 1.0312-3.942 2.3982-5.942 5.4392-5.698 10.4994.48 9.9287.226 19.9005.077 29.8531-.043 2.5422.652 4.4272 2.523 6.0675 1.074 1.0274 2.095 2.108 3.06 3.2377l-.173.5228h-15.454c.585 1.6308 1.199 2.8538 1.439 4.1489.96 4.8924-.571 8.9646-4.441 12.0919-4.058 3.2807-8.778 4.0098-13.795 3.228-4.528-.7099-8.552-2.5182-11.838-5.7894-.331-.3261-.709-.5995-1.184-.9976-1.132 1.554-2.125 3.0697-3.271 4.4655-2.472 2.9719-5.919 4.9694-9.726 5.6362s-7.728-.0405-11.062-1.9957c-7.382-4.3696-8.154-14.092-1.247-19.1858 2.566-1.8898 5.755-3.0889 8.782-4.1729 3.386-1.1752 6.921-1.8754 10.634-2.8587zm20.279-19.4832c-.038-4.5998-1.544-9.4346-4.226-13.8665-3.837-6.3074-8.744-11.3916-16.168-13.3678-7.425-1.9761-13.977 1.3478-16.836 8.4994-2.091 5.2377-1.616 10.5186.12 15.6652 3.06 9.1132 8.749 15.881 18.169 18.8692 5.933 1.885 11.272.6523 15.349-4.264 2.57-3.1033 3.53-6.8782 3.592-11.5355zm-13.574 35.724c4.317 5.0027 9.43 7.3673 15.795 6.6527 3.007-.3406 5.405-1.7795 6.902-4.5087 2.053-3.7556 1.199-9.1133-1.919-12.0823-1.578-1.5462-3.644-2.4974-5.846-2.6915-2.201-.1942-4.401.3807-6.226 1.6267-4.116 2.6716-6.519 6.6479-8.706 11.0223z"/><path d="m333.3 76.4749h-17.977l-.34-.4796c1.29-1.3382 2.503-2.7628 3.894-3.9907 1.391-1.2278 1.89-2.7291 1.876-4.6237-.086-9.1565-.063-18.3129-.029-27.4741.082-3.3562-.65-6.6823-2.134-9.6936-1.823-3.5686-4.49-6.4177-8.677-6.7151-2.183-.1535-4.753.2734-6.595 1.367-2.907 1.7219-5.42 4.1441-7.924 6.456-.6.5564-.734 1.8611-.695 2.8012.119 2.7723.609 5.5351.642 8.3074.091 7.7991.154 15.6077-.029 23.4067-.071 3.017.538 5.42 2.984 7.3242 1.026.801 1.799 1.9186 3.036 3.2808h-18.524l-.345-.4173c1.276-1.3478 2.489-2.7676 3.837-4.0243.623-.5437 1.114-1.2226 1.435-1.9848.321-.7623.463-1.5878.416-2.4135-.086-9.473 0-18.9508-.062-28.4286-.034-4.7533-1.295-9.1132-4.739-12.6434-3.228-3.2904-7.535-4.3168-11.588-2.1824-2.907 1.5493-5.434 3.8372-7.991 5.9668-.6.5036-.873 1.6931-.873 2.5709-.057 11.8664-.057 23.7312 0 35.5944.095 1.0779.524 2.0992 1.228 2.9211 1.309 1.6452 2.839 3.1081 4.672 5.0602h-18.572l-.312-.4556c1.439-1.5253 2.979-2.9786 4.317-4.6094.708-.8056 1.149-1.8111 1.261-2.8779.077-12.5043.044-25.0039.034-37.5082-.026-.3216-.068-.6418-.125-.9593l-5.449-3.8612v-.5755l12.745-3.9859v6.739l.518.2542c.614-.5324 1.223-1.0744 1.846-1.5972 4.063-3.4246 8.476-5.8421 14.054-5.7269 6.067.1247 10.509 2.7771 13.622 7.8613.283.4797.556.9593.882 1.4869 1.813-1.6164 3.468-3.204 5.243-4.6429 4.556-3.6885 9.751-5.4104 15.622-4.5087 7.031 1.0792 12.471 7.2762 13.166 15.0657.254 2.7675.288 5.5591.302 8.3458.039 7.6407.048 15.2863 0 22.9318-.049.7489.073 1.4992.358 2.1934s.726 1.3139 1.288 1.8117c1.4 1.2806 2.652 2.7148 3.966 4.0865z"/><path d="m102.986 29.2777v-20.39451l-5.8851-4.09617c4.3981-1.84663 8.5761-2.81552 12.9791-4.316805.11 1.491695.254 2.561305.254 3.635705 0 20.92688.043 41.85388-.033 62.78078 0 2.3263.518 4.1297 2.336 5.6406 1.199 1.0025 2.177 2.2735 3.64 3.8372h-13.027v-7.4154c-.892.6811-1.338.9593-1.708 1.3191-11.6118 11.262-26.7398 6.7726-34.3854-1.4869-11.1949-12.1063-9.3291-33.1435 3.9907-42.8227 8.3554-6.0724 21.0228-7.1324 30.2607 1.8802.437.4221.897.8154 1.578 1.4389zm.125 19.9724c0-4.2161-.307-8.4657.086-12.6482s-1.309-6.8446-4.4366-9.0461c-1.088-.8073-2.2253-1.5458-3.4054-2.2112-8.3986-4.4847-15.435-3.0505-21.0133 4.6142-5.7557 7.9237-7.1035 16.8739-5.2377 26.3805 1.1128 5.6742 3.5206 10.7344 7.7079 14.821 3.18 3.1033 6.9692 4.7965 11.5115 4.1106 5.3336-.8106 9.732-3.3575 13.3816-7.3194.492-.5125.874-1.1205 1.121-1.7862.248-.6658.356-1.3753.318-2.0846-.081-4.9547-.033-9.8902-.033-14.8306z"/><path d="m338.763 30.0257-5.526-3.8947v-.6428l12.648-4.0242v7.9717c.734-.6283 1.099-.8969 1.439-1.2231 10.274-10.4802 25.508-8.1875 34.233.8058 11.185 11.5115 10.072 32.1363-2.365 42.3047-8.154 6.6719-21.709 8.9358-31.897-1.367-.321-.3261-.661-.6331-1.367-1.295v5.5591c0 4.4559.053 8.9118-.028 13.3677-.042.6691.07 1.3389.327 1.9582.257.6192.652 1.1717 1.155 1.6152 1.496 1.4053 2.878 2.9354 4.696 4.7964h-19.234c1.832-1.9186 3.42-3.4534 4.796-5.1466.696-.8189 1.117-1.8356 1.204-2.9066.067-18.8549.048-37.7145.043-56.5742-.033-.3453-.086-.7626-.124-1.3046zm7.161 18.9268c0 4.1393.369 8.3218-.101 12.4132-.508 4.4943 1.597 7.2378 4.892 9.5545 1.215.8987 2.498 1.7006 3.837 2.3983 7.776 3.8371 14.428 2.3982 19.743-4.432 5.707-7.3433 7.247-15.8043 6.058-24.836-.801-6.0435-3.037-11.5115-7.195-16.1065-4.159-4.595-9.228-6.0723-15.195-4.3599-4.264 1.223-7.766 3.6357-10.739 6.8829-.462.4893-.819 1.0674-1.05 1.699-.23.6316-.33 1.3036-.293 1.975.043 4.9356.043 9.8759.043 14.8115z"/><path d="m247.737 76.4647h-12.336v-10.6098l-.389-.1247c-.283.4796-.575.9593-.839 1.4389-4.729 8.7871-16.284 12.2837-25.795 7.7991-9.512-4.4847-13.742-15.0561-9.684-24.4619 3.112-7.1947 9.113-10.4563 16.648-10.8736 3.271-.1775 6.59.4797 9.569.6955-4.912-4.8204-11.483-5.9812-18.706-5.3912.022-.4552.091-.9069.206-1.3478 4.178-8.461 14.773-13.7323 24.083-11.9911 7.406 1.3861 11.756 6.5423 11.833 14.279.07 10.4243.062 20.847-.024 31.268 0 2.0721.48 3.6501 2.058 5.0171 1.338 1.1704 2.489 2.547 3.722 3.8372zm-12.753-19.0659c-.129-2.456-.765-4.8588-1.868-7.057-1.103-2.1983-2.649-4.1444-4.541-5.716-4.633-3.9427-9.995-4.7964-15.66-2.6188-5.204 2.0193-7.789 6.2353-8.375 11.5498-.873 7.9381 4.063 15.5885 11.608 18.3992 9.665 3.6069 18.812-2.6956 18.836-14.5572zm.11-5.8613c0-5.6838.101-11.0894-.048-16.4854-.074-2.294-.43-4.5702-1.06-6.7774-.724-2.5421-2.614-4.1345-5.276-4.6573-6.595-1.3047-12.826 3.0601-14.044 9.967 9.689 2.4893 16.116 8.7967 20.428 17.9531z"/><path d="m444.424 76.5132h-12.427v-10.6386l-.418-.0575c-.642 1.0696-1.199 2.1968-1.918 3.1896-5.065 6.859-12.14 8.9838-20.131 7.4201-7.991-1.5636-13.607-6.5135-15.19-14.7059-2.36-12.3125 5.52-21.2147 17.435-22.102 1.673-.1248 3.355-.0911 5.022.1007 1.645.1918 3.252.6715 4.796 1.0072-1.491-2.0145-4.796-4.2832-8.633-5.0746-3.296-.6859-6.715-.7674-10.342-1.1464 1.212-2.6729 2.982-5.0558 5.19-6.9884 5.507-5.089 12.058-7.0843 19.426-5.8373 7.195 1.2039 11.511 6.3457 11.631 13.622.111 5.3336.029 10.6673.034 15.9961 0 5.5687.033 11.1422-.024 16.7109-.043.6293.055 1.2604.288 1.8465.234.5861.596 1.1123 1.06 1.5398 1.544 1.4629 2.973 3.0457 4.451 4.5806zm-25.2-3.5254c4.365-.2159 8.408-2.499 10.825-7.2714 3.838-7.5928.259-18.8021-7.266-22.8695-8.245-4.4607-17.833-1.1656-20.807 7.1467-3.823 10.6961 4.921 23.0086 17.248 22.9942zm-7.934-39.3885c9.713 2.4462 16.083 8.8303 20.505 17.9675 0-6.3409.067-12.2741-.043-18.2025-.091-1.5891-.4-3.158-.921-4.6622-1.026-3.3143-3.42-5.0554-6.921-5.2377-6.346-.3309-11.392 3.6837-12.62 10.1349z"/><path d="m62.8719 76.6473h-18.3656l-.3646-.5132c.897-1.0025 1.6548-2.192 2.7148-2.9786 2.6477-1.9666 2.734-4.101 1.439-6.998-1.9474-4.3504-3.4199-8.9071-5.1131-13.3726-.3021-.801-.6762-1.578-1.0408-2.427h-27.6467c-2.2112 6.4513-4.4224 12.8977-6.71506 19.5792l6.01476 6.4512h-13.7946c1.73152-1.8035 3.22321-3.1849 4.49907-4.7389.9833-1.1204 1.76837-2.4002 2.32148-3.7844 6.13465-17.4879 12.15905-35.0141 18.30805-52.502 1.0996-2.8998 1.61-5.98981 1.5013-9.08924-.1055-2.03849 0-4.08658 0-6.27376h3.5782c.446 1.03124.9113 2.0289 1.3094 3.05534 8.1891 21.13956 16.3703 42.28076 24.5434 63.42346.8699 2.476 2.3244 4.7055 4.2401 6.4992 1.036.9593 1.9186 2.0337 2.8779 3.0601zm-35.1484-62.6992-.5996-.0528-11.9671 34.6352h26.3805c-4.6862-11.7177-9.2476-23.1525-13.8138-34.5824z"/><path d="m189.633 61.6484h4.375c-2.039 9.0029-15.79 16.5765-27.729 15.411-13.286-1.2998-24.188-12.8545-24.903-25.8721-.868-15.6748 10.149-27.5508 23.225-29.738 11.252-1.885 25.421 4.4511 27.881 12.5619-2.921 0-5.755.1056-8.585-.0719-.691-.0432-1.334-1.0025-1.981-1.5636-2.398-2.0721-4.552-4.5519-7.224-6.1731-10.921-6.6095-22.011-1.9186-25.253 10.4227s3.358 28.6156 14.322 35.2203c3.861 2.3263 8.02 3.6693 12.562 2.9211 5.981-.9833 9.77-4.7053 12.02-10.1541.336-.8058.609-1.6404.926-2.4558.102-.1822.225-.3527.364-.5084z"/><path d="m583.045 76.4029c-.96-4.2401-1.866-8.389-2.787-12.5427l.518-.3214c.652.5084 1.328.9881 1.952 1.5301 2.528 2.2016 5.027 4.4319 7.559 6.6239 5.468 4.7437 16.164 4.9451 21.867.4317 4.226-3.3575 4.542-8.1924.417-11.8904-2.425-2.0661-5.065-3.8655-7.875-5.3673-3.118-1.7603-6.485-3.0793-9.67-4.7293-4.36-2.2687-8.355-5.0362-11.032-9.2763-5.166-8.154-.997-17.8284 8.557-18.8644 6.288-.6859 12.72-.1295 19.507-.1295.907 3.8851 1.847 7.9237 2.792 11.9671l-.451.2878c-.499-.2901-.979-.6104-1.439-.9593-2.461-2.1536-5.012-4.2209-7.319-6.528-4.197-4.2017-9.186-4.3168-14.452-3.0457-1.391.3596-2.709.9585-3.895 1.7699-3.64 2.4414-4.264 6.3265-1.439 9.6552 1.42 1.7211 3.106 3.2043 4.993 4.3936 3.128 1.885 6.5 3.3575 9.776 5.0123 2.877 1.4389 5.818 2.6524 8.556 4.264 4.763 2.8155 7.91 6.8206 8.538 12.5379.7 6.3553-2.13 11.4444-8.154 13.857-2.064.8559-4.258 1.3539-6.489 1.4725-6.236.1966-12.471.0815-18.707.0767-.445-.0467-.887-.122-1.323-.2254z"/><path d="m464.776 76.4653h-17.949l-.311-.4556c1.295-1.3431 2.527-2.758 3.904-4.0051.592-.5204 1.057-1.1699 1.358-1.8985s.43-1.5166.378-2.3032c-.062-11.7753-.081-23.5458 0-35.3162 0-2.0146-.628-3.276-2.364-4.2017-1.128-.6716-2.218-1.4034-3.267-2.192l.096-.614 12.821-4.0386v3.2472c0 14.2359.029 28.4718-.038 42.6884 0 1.8898.407 3.3576 1.856 4.619 1.357 1.1895 2.532 2.5853 3.789 3.8899-.081.2111-.163.3934-.273.5804z"/><path d="m454.94 14.5234c-1.024-.0096-2.022-.3225-2.868-.8993s-1.501-1.3915-1.884-2.341-.475-1.99125-.266-2.99338.711-1.91965 1.442-2.63649c.731-.71683 1.658-1.20078 2.664-1.39062s2.046-.07704 2.988.32412c.942.40117 1.744 1.07268 2.304 1.92959s.853 1.86072.843 2.88444c.001.68144-.135 1.35624-.398 1.98464-.264.6285-.65 1.198-1.136 1.6751-.487.4772-1.064.8524-1.697 1.1036-.634.2512-1.311.3733-1.992.3593z"/></g></svg>