<svg id="Layer_1" data-name="Layer 1" xmlns="http://www.w3.org/2000/svg" viewBox="0 0 780.83 455.06"><path d="M528.54,62.27V314c0,39.8,0,39.8,21.68,76.22H496.68c-1.07-7.73-2.2-16-3.69-26.82-28.25,24.15-58.5,37.05-94.87,28-25-6.2-45.74-18.65-61.86-38.73-36.39-45.35-36-116.32,1-160.18,39.43-46.78,85.57-50.32,156.28-11.35.38-4,1-7.46,1-11,.08-22.84,0-45.68,0-67.95l-25.9-20.82ZM494.58,274c0-20.39.3-40.8-.19-61.19-.14-5.87-1-12.71-4.15-17.37-29.52-43.79-92.11-43.53-119.91.8s-30.24,91.14-8.79,138.11c26,57,77.8,67.13,121.21,24.5,6.27-6.15,10.55-16.68,11.31-25.55C495.74,313.68,494.58,293.8,494.58,274Z"/><path d="M321.48,390.38H241l23.79-28.14c-10.07-26.76-20.45-54.29-30.87-81.95H116.28C107,307,97.64,334.22,88.2,361.55l24,28.57H54.3c37.84-39,43.39-89.69,60.83-135.16q26.25-68.47,48-138.62c5.12-16.57,3.51-35.19,5-52.8,14.45-7.7,17.87,2.2,21.57,11.76q33.9,87.45,67.83,174.87c11,28.28,20.9,57,33.18,84.7C299,353.68,310.59,371.05,321.48,390.38Zm-148-261.82-4.61-.66c-16.1,46.78-32.19,93.56-48.71,141.55H229.6C210.35,221.16,191.9,174.86,173.44,128.56Z"/><path d="M701,155.5c3.84,16.1,7.9,33.16,12,50.22l-4.7,3.46c-11.21-9.71-23.13-18.73-33.46-29.29-18.91-19.33-41.91-21.84-65.31-14.13-10.39,3.43-22.76,13.61-25.6,23.25-2.45,8.34,4.61,23.42,12.26,29.89,14.4,12.2,32.1,20.61,48.71,30.1,18.77,10.73,39.19,19.12,56.47,31.8,23,16.89,30.5,46.92,21.61,71.66-8.1,22.51-32.25,38.7-60.24,39.28-26.09.53-52.2.15-78.3.08-2.44,0-4.87-.72-9.72-1.49-3.87-17.09-7.87-34.77-11.87-52.45l4.54-3.22c12.23,10.59,25.76,20,36.39,32,17.34,19.56,65,22.93,89.07,8.86,24.38-14.29,28.26-38.87,5.62-55.74-20.18-15-44.41-24.54-65.47-38.56-18.81-12.52-39.41-25.07-52.71-42.54-25.8-33.89-7.44-76.82,34.75-82.53C642.23,152.51,670.43,155.5,701,155.5Z"/></svg>