<svg id="Layer_1" data-name="Layer 1" xmlns="http://www.w3.org/2000/svg" viewBox="0 0 2217.34 442.67"><path d="M1051.94,386.79h-80.7c.46-9.17,7.1-13.63,12.29-18,9-7.63,11.36-16.55,11.17-27.87-.56-35.33,0-70.68-.28-106-.14-19.38-2.84-38.32-13.35-55.3-15.88-25.66-41.56-31.92-67.15-16.13-5.8,3.57-11.08,8-16.53,12.1C884,185.64,876,197.4,882.65,215.29c2.05,5.54,1.12,12.26,1.14,18.44.09,34.1.63,68.22-.22,102.3-.38,15.15,1.73,28,14.73,37.6,3.74,2.75,6.21,7.2,10.82,12.76H825.45c7.28-8.21,12.1-14.32,17.65-19.7,5.2-5.05,8.22-10.41,8.13-17.88-.53-44.63-.44-89.26-1.34-133.88-.36-17.86-6.92-34-20-46.69-15.16-14.71-32.69-18.19-51.16-8.28-10.78,5.79-20.58,13.84-29.61,22.17-4,3.67-6.89,10.56-7,16-.52,50.22-.19,100.44-.44,150.66,0,7.48,2.45,12.9,7.86,17.89s9.86,10.67,15.2,16.57c-14.2,5.12-58.42,5.85-80.33,1.32,6.16-6.74,11.85-12.14,16.49-18.32,3.16-4.22,6.85-9.51,6.89-14.35.48-55.76.31-111.52.31-167.47l-24.2-19a301.51,301.51,0,0,1,56-17.88c1.17,9.75,2.13,17.84,3.45,28.82,21.5-19.1,43.12-32.92,71.27-31.4s47.57,15.75,61,40.83c8.41-7.46,15.44-14.32,23.1-20.4,24-19,51-26.82,80.32-15.71,33.43,12.66,45.48,40.75,46.48,73.84q1.65,54.81,0,109.72c-.49,17.26,2.28,31.69,17,42.36C1045.39,377.7,1047.22,381.07,1051.94,386.79Z"/><path d="M433.35,386.73h-81c1.41-9.44,9.2-13.2,14.16-18.79,4.56-5.13,9-9.58,8.94-17.44-.28-55.09-.15-110.18-.15-166.17l-25.89-18.77c19.79-7.66,37.17-14.53,57.49-17.5,1,9.52,1.89,17.31,3,27.76,7.8-5.65,14-10.39,20.47-14.79,24.77-16.87,51.86-20.63,80.06-11.52,31.37,10.14,51.69,39,52.38,74,.72,36.53,1,73.1-.05,109.61-.47,17.18,2.07,31.69,16.75,42.38,2.82,2.05,4.69,5.42,9.54,11.24-15.61.28-28.16.59-40.71.7-13,.11-26,0-40.26,0,1.93-10.67,10.1-15,14.89-21.69,3.44-4.78,8.06-10.43,8.05-15.69-.12-45.78.19-91.63-2.41-137.31-1.69-29.54-23.13-50.15-51-56.76-11.84-2.81-22.12.2-32.41,4.79-4.5,2-8.61,4.88-12.88,7.41C415,178.51,406.83,191.9,408,213.74c2.14,41.39,1.25,83,.28,124.45-.34,14.86,3,26.45,14.83,35.66C426.27,376.34,428.31,380.3,433.35,386.73Z"/><path d="M1171.93,226.53c-23.86-21.38-49.94-22.15-78.33-21.65,10.3-23.12,25.41-38,45-48.2,21.65-11.28,44.85-14.56,68.72-8.62,24.78,6.18,39.59,22.28,43.77,47.42a175.41,175.41,0,0,1,2.5,27.63c.27,38.39.55,76.79-.11,115.18-.24,13.8,1.78,25.44,13.61,34.2,3.69,2.73,6,7.28,10.52,12.94-19.77,3.41-37.13,2-56.4,1.37V347l-3-.8c-2,2.63-4,5.26-6,7.91-24.91,33.52-72.46,44.19-110.51,24.8-37.52-19.12-55.49-60.3-41.84-100.62,10.22-30.16,32.95-47.69,64.74-51.49C1139.2,225.09,1154.16,226.53,1171.93,226.53Zm48.92,92.36c-1.3-34.06-9.9-54.86-28-70.78-37.74-33.2-94.94-14.38-104.41,34-6,30.52,17.58,73.21,51.88,84.64C1185.25,381.7,1222.75,347.41,1220.85,318.89Zm-1-47.27c0-30,1-55.9-.3-81.73-1-21.35-16.72-35.5-35.88-35.41-25.15.12-46.24,19.12-49.91,45.1C1172.58,209,1197.8,235.08,1219.85,271.62Z"/><path d="M1978.61,386.15h-84.27c7.71-8.46,13.4-13.92,18.11-20.12,3.57-4.71,8.38-10.35,8.37-15.57-.11-45.8.19-91.68-2.44-137.37-1.7-29.6-23.21-50.38-50.92-57.05-11.86-2.85-22.3,0-32.44,4.72-7.24,3.38-13.79,8.3-20.46,12.8-12.68,8.55-18.45,19.52-18,35.8,1.18,43.34.84,86.75.13,130.11-.21,12.78,2.68,22.74,12.71,30.93,4.57,3.74,8,8.91,13.91,15.76h-81.24c1.75-9.56,11-13,15.33-20,3.1-5,7.32-10.59,7.37-15.95.54-55.11.33-110.22.33-165.47-8.36-6.22-16.14-12-26.84-20l57-17.92c1.06,10.39,1.85,18.18,2.7,26.62,7.5,1.53,11.1-4.47,15.64-7.91,14.15-10.71,29.53-18.31,47.46-20,52.84-4.89,90.8,28.46,91.7,81.32.62,35.93,1,71.9-.2,107.8-.54,16.73,2.58,30.3,16.42,40.59C1971.82,377.43,1973.81,380.68,1978.61,386.15Z"/><path d="M1606.2,144.53c56.73-3.06,123.36,45.84,123.14,122.56-.2,68.24-54.82,123.26-123.42,122.8-69.46-.46-122.19-59.17-122.17-122.25C1483.77,196.53,1544.58,141.55,1606.2,144.53Zm-90.7,102.92c2.08,10.19,3.74,26.39,8.81,41.46,11,32.5,29.85,59.78,60.09,77.69,29.94,17.72,58.67,16.28,83.28-3.73,15.19-12.34,22.15-29.42,26.37-47.85,7.58-33.09-.17-64-15.25-93.17-14.91-28.8-36.36-51.69-68.12-62.61-31.27-10.76-61.08-.06-79.34,27.58C1520.32,203.49,1517.71,222.39,1515.5,247.45Z"/><path d="M187.1,52.77H203c11.45,29.14,22.84,57.86,34,86.66C262.61,205.25,288.25,271,313.48,337c5.4,14.13,11.86,27.09,23.75,37,3.14,2.61,5.26,6.45,10.35,12.88-16.53.25-29.78.53-43,.63-13,.1-26,0-40.13,0,3-14.08,16.19-18.67,21.51-31l-30.95-83H133.45c-9.39,27.6-19.06,56-28.6,84l25.47,27.86c-20.58,3.77-38.12,1.76-60,1.81,6.54-7.74,10.17-13.23,14.94-17.43,8.75-7.68,13.48-17.3,17.21-28.05,26.73-77.27,53.89-154.39,80.5-231.7,2.77-8,3.44-16.93,4-25.5C187.61,74.66,187.1,64.78,187.1,52.77ZM251,263.63c-20.39-50.79-40-99.58-61.12-152.29-18.45,53.13-35.43,102-52.89,152.29Z"/><path d="M1994.23,387.49c-4.25-19.44-8-36.77-11.82-54.1l3.24-2.44c9.21,7.54,18.46,15,27.63,22.62,7.64,6.33,14.26,14.85,23,18.73,26.19,11.65,53.41,12.83,79-1.63s27.29-40.62,3.4-59.15c-14.09-10.93-30.69-18.68-46.31-27.6-17.22-9.84-35.57-18-51.65-29.41-19.35-13.7-32.78-32.06-31.47-57.8,1.06-20.89,12.93-38,33-45.06,7.54-2.68,15.61-5.14,23.51-5.37,24.19-.69,48.42-.25,75.07-.25l12.64,53.07-3.81,2.12c-12.43-10.91-24.94-21.73-37.27-32.75-19.39-17.33-49.83-21-73-8.6-21.51,11.52-25,30.78-9,48.95,14,15.83,32.79,24.26,51.31,33.11,15.12,7.24,30.85,13.42,45.34,21.74,18.84,10.81,32.88,26.06,38.16,48.18,6.89,28.88-5.22,55.54-32.37,67.58-8.42,3.73-17.75,7-26.8,7.41-23.6,1.12-47.29.55-70.94.65C2008.9,387.51,2002.75,387.49,1994.23,387.49Z"/><path d="M1298.37,154l-27.25-1.9c18.1-18.87,37.53-31.49,58.37-48.68,1.09,15.24,1.94,27.18,2.93,41.12l35.92,2.18c-10.24,10.31-23.22,3.32-35.37,8.59-.49,3.3-1.66,7.38-1.64,11.47q.24,83.69.81,167.37a76.24,76.24,0,0,0,1.23,14.8c4.73,23,18.34,33.24,42.29,32.45,2.26-.07,4.56.54,10.19,1.27-4.48,2.88-6.13,4.81-8,5-40.39,4.57-81.31-21.1-79.81-69.19,1.49-47.7.32-95.47.32-143.21Z"/><path d="M592.55,164.23l58.63-18.73c.41,9,1,15.52,1,22,.07,56.31.41,112.63-.21,169-.16,15,1.37,28,14.72,37.45,3.23,2.28,5.15,6.42,10,12.77-28.57,1.37-53.88.75-79.18.56l-1.92-3.77c5.23-5.72,11-11.05,15.5-17.3,3.38-4.7,7.19-10.56,7.24-15.94.47-53.83.22-107.68.1-161.52,0-1.79-.73-3.59-1.25-6Z"/><path d="M1414.11,182.52c-3.35-2.49-6.77-5.08-10.23-7.61s-6.94-5-10.55-7.57c9.93-8.6,30.06-15.74,55.44-19.44v20c0,56.32.44,112.64-.3,169-.19,14.57,2,26.62,14.1,35.91,3.74,2.86,6.24,7.31,11.69,13.92-28.54,1.49-54.07.65-80.5.54.11-9.59,7.41-13.22,12.13-18.07,5.9-6.06,9.64-12.1,9.59-21.06-.34-52.6-.18-105.21-.25-157.81C1415.22,187.87,1414.55,185.45,1414.11,182.52Z"/><path d="M631.46,70.38A22.61,22.61,0,0,1,654.31,94.1c-.4,12.64-9.95,21.94-22.56,22-13.49,0-23.34-10.08-22.91-23.48A22.88,22.88,0,0,1,631.46,70.38Z"/><path d="M1451.76,93.7a22.79,22.79,0,0,1-24.19,22.37c-12.61-.7-21.37-10.28-21.19-23.18a22.52,22.52,0,0,1,24-22.43A22.77,22.77,0,0,1,1451.76,93.7Z"/></svg>