<svg id="Layer_1" data-name="Layer 1" xmlns="http://www.w3.org/2000/svg" viewBox="0 0 658.58 463.41"><path d="M91.44,370.29c8.77,9.46,16.2,17.5,26.35,28.46H60.4c.92-2.84.93-5.81,2.38-6.93,19.89-15.41,26.32-38.17,34-60.38,23.66-68.41,47.74-136.68,71.05-205.21,3.5-10.31,4.33-21.67,5.3-32.64.86-9.69.18-19.52.18-30.34h17c13.82,35.13,27.56,69.56,40.93,104.13,24.55,63.47,48.24,127.28,73.77,190.36,5.78,14.3,17.62,26.16,27.87,40.85H250.17l23.92-28c-10.35-27.45-21.17-56.14-32.26-85.53H121C111.1,313.49,101.45,341.38,91.44,370.29Zm146.91-94.87c-20.36-50.56-39.69-98.54-59-146.52l-4.42.45L124,275.42Z"/><path d="M362.54,195.19l-25.42-19.92,59.29-18.58v37.89C418.47,167,447.49,160.19,482,157.86c-2.72,12.74-4.94,23.14-7.15,33.44-14.58,2-27.54,3.08-40.2,5.66-28.46,5.81-37.64,17.31-37.66,45.83q0,61.2.15,122.4a52.33,52.33,0,0,0,.85,6.35l23.46,27.08H338.24c9.66-10.73,16.86-18.73,24.3-27Z"/><path d="M512.15,165.73l-28.07-3.5,60-48.35c1.13,16.36,2,28.25,2.87,41.54l36.16,3.05-.06,4.64-35.14,1.95c-.77,4.77-2.17,9.4-2.16,14,0,54.44.17,108.89.67,163.34a93.12,93.12,0,0,0,3.6,23.71c5.35,19.3,14.58,26.35,34.34,27.91,3.87.3,7.7,1.17,13.85,2.13-30.58,13.14-73.4-8-82.26-38.88-2.68-9.34-3.53-19.48-3.6-29.26-.36-47-.17-94.05-.17-141.08Z"/></svg>