<svg id="Layer_1" data-name="Layer 1" xmlns="http://www.w3.org/2000/svg" viewBox="0 0 4477.66 593.36"><path d="M2097.12,362.48c-5,5.85-8.78,9.9-12.21,14.18-31.73,39.58-101.26,48.36-142,25.93-75.9-41.77-79.19-143.47-10.38-187.43,31.17-19.91,63.26-20.19,95.64-3.37,27.36,14.22,47,36.3,61.88,62.8,7.84,14,15,28.36,24,45.5,12-24.2,22.76-46,34.17-69-14.86-6.9-28.83-12.16-41.55-19.56-20.86-12.15-42-24.34-61-39-18.66-14.37-27.71-34.72-24.22-59.11.09-.62.1-1.24.19-1.85,3.38-23.89,21.71-41.7,48.73-47.39,30.49-6.41,62.45,5.44,75.71,28.09,11.64,19.87,8.12,48.14-8.61,67.55-4.4,5.11-9.27,9.81-15.75,16.62,8.78,4,16.33,7.59,23.93,11,7.33,3.3,14.72,6.47,23.35,10.26,19.6-20,40.46-38.68,69.3-43.9,9.55-1.73,19.43-1.67,31.88-2.63-3.43,12.66-6.07,22.43-8.62,31.82-28.81,4.52-59.09-6.11-85.07,17,15.5,8.59,29,15.75,42.24,23.46,21.58,12.59,37.82,29.77,46.56,53.66,19.48,53.27-10.16,107.47-64.37,116.5-37.05,6.18-67.45-5.66-90.93-34.87C2106.09,373.91,2102.31,369.05,2097.12,362.48Zm-4.13-6.19c-11.66-22-21.95-42.5-33.2-62.41a346.5,346.5,0,0,0-24.22-37.35c-12-15.93-25.83-30.18-44-39.46-16.45-8.41-32.82-10-49.85-.75-42.52,23.09-63.06,70.88-48.6,116.86,13.79,43.82,44.77,70.32,90,75.56C2029.23,414.08,2067,396.53,2093,356.29Zm24.52-29.64c10.58,22.13,22.26,42.44,39.19,59.27,29.9,29.72,70.09,25.42,94-9.68,11.65-17.14,13.13-34.91,1.6-52.16-23.7-35.46-59.93-53.64-98.41-70.66Zm-3.65-131.3c9.23-9.64,17.38-16.46,23.43-24.8,15.4-21.19,13.53-47.24-3.56-64.46-22.73-22.91-64-25-88.72-4.41-13.36,11.09-16.07,25-6,39.26,5.62,7.95,12.63,15.6,20.62,21.06C2076.42,173.48,2094.26,183.43,2113.86,195.35Z"/><path d="M1668.55,469.86c-7.32,8.61-13.55,17.12-21,24.46a70.26,70.26,0,0,1-79.42,13.26c-38-18.17-42.39-65.86-7.1-88.66,13.77-8.89,30.5-13.43,46.16-19.2,9.68-3.56,19.9-5.68,33.88-9.57-53.89-7.37-87.71-34.36-100.13-82.14-11.7-45,.52-85.75,39-114.16,40.78-30.07,84.45-28.78,129.54-3.6l59.61-31.81v37.75l-47.79,2.1c4.33,5.79,6.68,9.21,9.31,12.41,47.52,57.84,26.24,143.67-43.49,171.58-22.41,9-46.33,14.17-69.5,21.28-11.89,3.65-24.44,6.23-35.23,12-10.62,5.68-21.57,13.21-28.48,22.72-12.28,16.9-3.94,34.9,16.52,39.51s39.82-.46,57.21-11.21c13.17-8.14,25.34-17.93,37.71-27.31,12.87-9.77,25.16-20.31,38.23-29.81,17.34-12.6,36.85-17.38,58.32-14.32,19.47,2.77,34.15,12.12,40.71,30.88,6.34,18.1,3.91,35.52-8.89,50.6s-29.69,22.42-49.2,23.06c-24.48.81-46.74-5.93-65.82-21.78C1675.53,475.2,1672.15,472.68,1668.55,469.86Zm62.19-160c-.19-51.34-34.79-102.51-80-120.63-37.88-15.2-73.89,2.19-85.11,41.08-16.54,57.35,30,133.78,88.73,145.67,26.76,5.42,51.08-4.3,64.85-26.12C1727.43,336.93,1731.2,322.74,1730.74,309.87Zm-57.87,150c13.91,19.59,38.17,32.37,59.12,31.74,22.74-.69,40-14,43.12-33.71,3-18.92-3.26-34.24-19.24-45.05-14.38-9.72-33.57-8.95-48.91,2.28C1691.06,426.8,1680.72,442.77,1672.87,459.91Z"/><path d="M78.86,414.28l26.46-28.84V107.85L80.82,80.51c4.47-.71,6.71-1.38,9-1.38,41.08,0,82.17-.56,123.23.29,38.14.78,65.83,24.8,71.82,60.37,3.56,21.15-2.52,39.14-18,53.94-3.91,3.73-8.1,7.15-13.81,12.17,5.22,1.68,8.53,2.84,11.9,3.83,48.77,14.45,81.89,60.93,76.64,107.6-6.3,55.9-45.11,93.74-100.24,96.59-21.73,1.13-43.56.33-65.34.36C145,414.31,114,414.28,78.86,414.28Zm58.48-6.49c36.46,0,70.58.4,104.69-.17,17.23-.28,30.52-9.58,41.51-22.18,34.91-40,34.14-114-1.74-152.75-10.77-11.64-23.32-20.36-42-20.34-21.5,12.35-44.56,24.6-66.55,38.53-18.93,12-34.42,28.54-35.51,51.87C136.14,337.3,137.34,372,137.34,407.79Zm.2-323.09V280.28c15.71-24.81,36.59-37.9,58.22-50.19a181.09,181.09,0,0,0,21.52-14.78c15.59-12.12,27.06-27.37,33.14-46.23,11.28-35-9.31-72.84-44.79-81.59C183.71,82.09,161.37,83.12,137.54,84.7Z"/><path d="M1138,207.34V119l-26.23-19.32,56.76-17.85V384.13l26.38,28.71h-55c-.59-9.07-1.2-18.67-1.92-29.76-2.89,1.44-5.76,2.11-7.57,3.87-58.2,56.47-157.23,25.52-177.38-59.86-11.26-47.72-1.26-91.15,35.68-126,30.66-28.93,91.47-44.39,137.82-3.17C1129.22,200.33,1132.13,202.55,1138,207.34Zm.29,10.67c-9.26-7.87-18-16.81-28.13-23.65-38.1-25.65-76.87-18.43-100.86,20.69-10.13,16.51-17.93,35.81-21.21,54.8-7.35,42.62,1.19,82.7,30.85,116.1,20.83,23.45,45.11,28.38,74.14,16.85,18.43-7.31,33.29-19,45.21-35.46Z"/><path d="M1505.25,385.36l25.69,27.46h-82.42l24-26.34c0-49.52.88-97.78-.65-146-.36-11.44-7-23.88-13.86-33.69-18.42-26.26-49.79-32.34-77.45-15.65-11,6.65-20.55,15.78-30.63,23.69V385.65L1375.15,413h-82.52l25.3-27.15V211.12l-26.21-18.78,56.12-18c.75,10.8,1.37,19.68,2.19,31.4,6.61-5.1,11.7-9.24,17-13.09,33.42-24.19,71.81-26.69,103-6.67,17,10.93,28.13,26.31,31.9,46.05a196.79,196.79,0,0,1,3.18,35C1505.48,306.74,1505.25,346.35,1505.25,385.36Z"/><path d="M4049.8,204.91c10.45-7.27,18.71-13.68,27.59-19.08,37.89-23.05,84.79-15.4,111,17.69a69.18,69.18,0,0,1,15.1,43c.49,37.17.55,74.34.76,111.51.05,8.64,0,17.29,0,26.11l26.42,29.26c-28.47,1.49-53.75.69-83.89.68l26.67-28.88c0-16.66.06-35.18,0-53.7-.1-27.26-.21-54.52-.47-81.78-.15-16-5.41-30.35-15-43.1-18.9-25.08-48.55-31.56-76.2-16.52a91.44,91.44,0,0,0-13.89,9.34c-6.22,5-12,10.61-18.08,16V385.92l25.31,27.14h-82.63l25.23-27.72V211.45l-26.12-19.38,56.61-17.89C4048.74,185.13,4049.19,193.62,4049.8,204.91Z"/><path d="M727.62,210.86l-25.83-18.7,55.81-17.64c.78,10.57,1.44,19.35,2.28,30.63,5.71-4.14,10-7.12,14.19-10.3,22.77-17.42,48.07-26,76.83-20.56,38.65,7.31,63.06,36.89,63.79,78,.67,37.15.18,74.33.19,111.49,0,6.8,0,13.6,0,21.05l26.37,28.57c-28.53,1.61-54,.51-84,.85l26.56-29c0-45.54.68-91.32-.32-137.07-.43-19.66-8.51-37.27-23.77-50.87-18.53-16.52-42.13-20.76-63.85-8.82-13.35,7.33-24.94,17.82-36.37,26.2v170l25.22,28.13H703.07c8.67-9.6,16.35-18.08,24.55-27.14Z"/><path d="M590.41,253.88c-21.86-20-49.11-23.64-80.84-22,14.95-26.89,33.4-44.8,60.11-53.48,16.2-5.26,32.67-6.87,49.7-3.35,29.06,6,48.09,25.43,49,54.95,1.31,42.73.68,85.51.86,128.27,0,8.64,0,17.28,0,25.8L695,412.73H638.9V372.51l-3-.76q-4.26,5.6-8.54,11.19c-21.74,28.32-51.78,36-85,30.47-32.48-5.43-55.19-24.72-65.56-56.57-16.25-49.91,16.41-98.75,69.05-102.79C560.59,252.93,575.49,253.88,590.41,253.88Zm47.67,79a83.72,83.72,0,0,0-25.69-55.76c-20.49-19.83-51.22-24.45-75.89-11.9-23,11.72-36.63,38.56-32.07,65.58,5.14,30.4,22.32,52.12,51.33,63.22C597.28,409.91,638.08,381.27,638.08,332.86Zm-.45-34.34c0-26.44.71-52.91-.28-79.32-.54-14.64-6.17-28.38-21.07-34.46-16.1-6.57-32.14-3.68-45.71,6.67-11.27,8.6-19.7,19.84-21.31,35.34C589.92,237.2,616.41,263.43,637.63,298.52Z"/><path d="M3424.89,254.11c-21.53-20-48.78-23.77-81-22.41,15.11-26.8,33.35-44.7,60-53.28,15.57-5,31.35-6.79,47.8-3.68,31.51,5.95,50.9,26.7,51.49,58.77.79,42.72.3,85.46.36,128.19,0,7.42,0,14.83,0,22.6l26.09,29.05h-55.43v-42.2l-3.15-1.25c-3.25,4.49-6.39,9.07-9.76,13.48-24.3,31.76-72.4,41.28-109.81,21.8-36.13-18.82-52.95-60.74-39.77-99.83,10.45-31,33.67-46.91,65-50.89C3392.47,252.46,3408.72,254.11,3424.89,254.11Zm-86.54,66.13c-.27,35.66,24.19,67.05,59.25,76,31.86,8.16,62.12-8.65,71.72-39.85,10.06-32.7-7.67-74.74-38.15-90.47C3387.28,243.32,3338.71,271.72,3338.35,320.24ZM3384,226.86c40.72,9.81,66.88,38,88.4,75.68.48-6,.75-7.84.75-9.68,0-17.93.38-35.88-.14-53.8a147.57,147.57,0,0,0-3.36-29.38c-4.94-21-20.11-30.63-41.62-27.54C3404.58,185.51,3389.6,200.43,3384,226.86Z"/><path d="M3863.05,416.17c-63.48,4.25-122.64-47.86-126.2-113.74-4.15-76.73,53-125.11,111.33-130.08,72.15-6.13,130.41,50.34,133,114.36C3984.07,357.19,3933.7,413.17,3863.05,416.17Zm87-94.35c-3.14-55-22.92-96.74-65.62-125.49-45.25-30.48-96.68-11.29-111.94,40.76-16.4,56,14.87,130.8,66.19,158.45,45.35,24.43,91.26,5.83,106-43.51C3948,340.91,3948.84,329,3950.08,321.82Z"/><path d="M2672.37,211.34l-27.28-19.63,56.59-17.89c.43,7,1,12.33,1,17.63q.12,68.81,0,137.62c0,17.78,3.75,34.42,14,49.24,19.83,28.57,52.29,35.76,81.63,17.24,10.41-6.57,19.45-15.26,29.07-22.94V211l-26-19.49,56.44-17.65V413.19H2843l-15.19-30.87c-9.85,6.89-18.61,13.78-28.07,19.49-38.67,23.34-86.38,15.23-112.4-18.82-10.6-13.87-14.73-29.88-14.8-47-.13-34.72-.11-69.43-.15-104.15C2672.36,225,2672.37,218.25,2672.37,211.34Z"/><path d="M2404.38,385.4v-278l-24.61-27.25h81.5l-24.36,27.14V386l22.66,24.27-1,3.94c-25.28.19-50.56.15-79.94-.07Z"/><path d="M2585.05,120.31l-26-18.78,57.07-18.69c.81,51.89.27,101.63.37,151.36.1,50.18,0,100.37,0,150.83l25.69,27.91h-81.87l24.71-27.82Z"/><path d="M2496.78,119.88c-8.37-6-15.37-11.07-25.19-18.16a420.16,420.16,0,0,1,56-17.67V383.62l26.27,29.29H2472l24.74-27.21Z"/><path d="M350.06,412.91l25.28-27.06V211l-25.92-19.44,56.82-17.85V216c19.22-33.1,51.31-37,86.53-42.45-2.8,12.46-5,22.31-7.52,33.51-9.22.91-17.86,1.09-26.19,2.77-10.86,2.19-22,4.38-32.06,8.73-12.85,5.55-20.28,16.36-20.33,30.81-.16,45.16-.06,90.33-.06,135.47l25.94,28.1Z"/><path d="M3241.25,385.39l27.08,28.8c-29.67.16-55.2.09-84.8,0l27.09-29.81v-173l-27.29-19.57,57.42-18v39.79c20.11-30.25,51.05-34.93,85.89-39.94-2.51,12.09-4.57,21.95-6.95,33.39-8.94.86-17.54,1-25.85,2.65-10.88,2.14-22,4.24-32.15,8.53-13.65,5.79-20.63,16.89-20.53,32.37C3241.42,295.21,3241.25,339.8,3241.25,385.39Z"/><path d="M2909.52,414c-4.25-18.89-8.15-36.26-12.05-53.62l2.73-2.16c11.91,10.14,24.31,19.77,35.62,30.54,23.4,22.25,50.84,24,79.95,16.24,7.57-2,15-6.33,21.24-11.22,17.24-13.57,18.95-32.69,3.81-48.42-7.63-7.93-17-14.6-26.6-20.19-13.92-8.14-29-14.25-43.08-22.21s-27.9-16.32-40.73-26c-7.23-5.45-13.35-13.19-18-21-21.12-35.65-1.79-74.74,39.4-80.44a177.72,177.72,0,0,1,22.35-1.59c19.89-.21,39.78-.07,61.31-.07,4.3,18.08,8.37,35.2,12.45,52.33l-3.26,1.81q-18.75-16.47-37.48-32.94c-21.27-18.73-56.52-20.83-79.65-4.72-14.75,10.29-19,26.67-7,40,10.52,11.75,23.78,21.88,37.53,29.79,20.42,11.75,42.71,20.22,63.5,31.37,21.35,11.46,35,29,38.48,53.85,3.85,27.3-6.81,49.57-32.07,60.64-9.5,4.17-20.23,7.27-30.52,7.63C2968.82,414.68,2940.17,414,2909.52,414Z"/><path d="M4374.17,175.75q5.85,25,11.74,50.15l-2.82,2.23q-17.62-15.39-35.25-30.79c-22.86-20.05-49.07-23.63-75.93-10.35-22.26,11-27.75,31.09-9.82,47.88,14.64,13.71,33.17,23.61,50.8,33.77,15,8.66,31.65,14.54,46.83,23,22.47,12.46,36.32,31,38.75,57.56,2.23,24.37-6.56,42.85-27.81,54.14-10.16,5.4-22.15,9.57-33.51,10.12-29.17,1.4-58.44.47-89.47.47-4.07-18.08-8.05-35.83-12-53.57l3.12-1.91q19.59,16.83,39.17,33.66c23.78,20.36,66.44,22.88,92.53,5.51,23-15.32,25.76-37.88,4.78-55.61-13.12-11.08-28.79-19.31-43.8-28-18.26-10.58-37.89-19-55.34-30.72-18.46-12.38-32.38-29-33.23-53.17-1.06-29.72,15-51.27,44.83-53.84C4315.45,173.88,4343.57,175.75,4374.17,175.75Z"/><path d="M3634.62,412.15c-48.88,9.06-82.92-18.06-83.2-64.42-.29-48.37-.07-96.74-.07-145.11V181.19l-29.69-3,59-46.67c.78,15.5,1.39,27.87,2.07,41.46l37.47,1.64.15,3.85h-37.07c-.66,7.24-1.45,12-1.46,16.74-.09,49.61-.25,99.22.12,148.83a161.84,161.84,0,0,0,3.59,33.14c5.15,23.46,15.54,31.38,40.33,32.95C3628.07,410.27,3630.25,411.12,3634.62,412.15Z"/><path d="M3122.57,136v36.6L3161,175c-.06,1.38-.13,2.75-.19,4.13h-37.18c-.52,7.09-1.25,12.45-1.26,17.81-.09,47.72-.33,95.45.14,143.18a188,188,0,0,0,4.16,38.68c4.86,21.82,17.22,30.75,39.83,31.29,2.37.05,4.73.29,8.8.55-31.24,11.65-69.86-7-79.6-37.89-2.91-9.25-3.63-19.49-3.71-29.28-.36-47.72-.16-95.45-.16-143.18V180.61l-24.26-1.73-1.63-3.17,52.63-41.93Z"/><path d="M3667.51,210.52l-25.9-18.86L3698,173.8c1.53,25.47.58,48.62.75,71.69.17,22.91,0,45.82,0,68.72V384c8.61,9.62,16.36,18.27,25.92,28.93h-82.36l25.18-26.9Z"/><path d="M1228.22,210.46c-4.93-3.42-9-6.23-13.06-9.08-3.52-2.47-7-5-13.41-9.55l56.71-18V383.86l27.11,29.27h-82.42l25.07-27.68Z"/><path d="M1262.61,120.24c.21,12.48-9.37,22.09-22.18,22.25a22.23,22.23,0,0,1-22.41-22.2c-.21-12.41,9.45-22.06,22.25-22.21C1252.68,97.94,1262.4,107.58,1262.61,120.24Z"/><path d="M3680.29,98.06c12.44.07,21.61,9.7,21.53,22.62s-9.35,21.9-22.26,21.81a22.38,22.38,0,0,1-22-22.63C3657.6,107.65,3667.67,98,3680.29,98.06Z"/></svg>