<svg id="Layer_1" data-name="Layer 1" xmlns="http://www.w3.org/2000/svg" viewBox="0 0 1366 281.42"><defs><style>.cls-1{fill:none;stroke:#000;stroke-miterlimit:10;}</style></defs><polygon points="128.08 59.38 187.08 200.38 231.08 75.38 217.97 59.38 277.86 59.38 264.08 75.38 264.08 212.38 277.86 227.29 219.08 227.29 232.08 213.38 232.08 81.38 188.08 205.38 188.08 227.29 163.45 227.29 107.08 89.38 107.08 201.43 131.08 227.38 80.5 227.38 104.08 202.38 104.08 83.38 91.91 59.38 128.08 59.38"/><polygon points="778.18 59.38 837.18 200.38 881.18 75.38 868.07 59.38 927.95 59.38 914.18 75.38 914.18 212.38 927.95 227.29 869.18 227.29 882.18 213.38 882.18 81.38 838.18 205.38 838.18 227.29 813.54 227.29 757.18 89.38 757.18 201.43 781.18 227.38 730.59 227.38 754.18 202.38 754.18 83.38 742.01 59.38 778.18 59.38"/><path d="M404.85,227.38l-13.77-14.54V131.38s-3-25-40-25c0,0-37-2-55,29,39-4,47,12,54,20-9.15-11.19-23-13-39.13-8.38a41.56,41.56,0,1,0,49.13,57.56v22.82ZM328.65,135c.86-11.24,9.43-24.62,20.43-24.62s11,14,11,14V169.3C358.17,165.22,349.08,142.38,328.65,135Zm16.21,77.53c-12.36,3.56-26.54-8-31.68-25.79s.72-35.13,13.07-38.69c8.33-2.41,17.48,2.06,24.14,10.68,2.5,4.06,3.83,6.2,4.53,7.31a47.31,47.31,0,0,1,3,7.79C363.06,191.64,357.21,209,344.86,212.53Z"/><path d="M683.84,227.38l-13.76-14.54V131.38s-3-25-40-25c0,0-37-2-55,29,39-4,47,12,54,20-9.15-11.19-23-13-39.14-8.38a41.56,41.56,0,1,0,49.14,57.56v22.82ZM607.65,135c.86-11.24,9.43-24.62,20.43-24.62s11,14,11,14V169.3C637.17,165.22,628.08,142.38,607.65,135Zm16.2,77.53c-12.35,3.56-26.53-8-31.67-25.79s.71-35.13,13.07-38.69c8.32-2.41,17.47,2.06,24.13,10.68,2.5,4.06,3.84,6.2,4.54,7.31a48.22,48.22,0,0,1,3,7.79C642.06,191.64,636.21,209,623.85,212.53Z"/><path d="M408.08,122.38l13,9v81.79l-13,14.35h58.34l-14-14.35V163.74c0-17.86,16.6-24.64,37.4-23.9.23.09,10.24-32.46,10.24-32.46-26.67.61-38.38,5.68-47.12,36.43l.18-37Z"/><circle cx="530.55" cy="80.73" r="18.17"/><polygon points="502.59 122.32 546.98 106.81 546.98 213.17 559.91 227.38 502.59 227.38 515.52 212.38 515.29 131.52 502.59 122.32"/><path d="M1042.24,156.74c-11.18-15.55-40.1-21.18-40.1-21.18h44.64a61.63,61.63,0,1,0-1,65.22l.06-.09C1046.79,199.21,1058.49,179.35,1042.24,156.74ZM982,111.31c18.27,0,26.56,21.58,26.56,21.58s-48.58.09-48.84,0C959.67,132.89,960.89,111.31,982,111.31Zm24.47,102.23c-52.78-13.81-47-78-47-78H985.5s23.84,2,42.88,12.39C1062.34,166.53,1046.89,224.13,1006.42,213.54Z"/><path class="cls-1" d="M959.67,132.89s1.22-21.58,22.28-21.58c18.27,0,26.56,21.58,26.56,21.58S959.93,133,959.67,132.89Z"/><line class="cls-1" x1="1002.14" y1="135.56" x2="985.5" y2="135.56"/><path d="M1124,105.77c-33.56,0-60.77,27.6-60.77,61.63S1090.42,229,1124,229s60.77-27.59,60.77-61.63S1157.54,105.77,1124,105.77Zm19.79,115.76c-14.75,5.56-35.8-14.06-47-43.82s-8.37-58.4,6.37-64,35.79,14.06,47,43.82S1158.51,216,1143.77,221.53Z"/><path d="M1194.28,187.5l4,39.67h50.33s36.87-5.41,36.87-32.68c0-25.69-31.28-38.27-45.61-44.91s-31.1-16.6-31.1-27.79,20.44-12.05,31.1-10.48l37.23,34.57-4.55-38.59h-37.22s-39.32-1.52-42.47,30.76c-1.75,18,19.92,32.85,37.92,43s37.4,19.09,37.4,29.53-14,15.38-33.38,13.81Z"/></svg>