<svg id="Layer_1" data-name="Layer 1" xmlns="http://www.w3.org/2000/svg" viewBox="0 0 15954.77 593.07"><defs><style>.cls-1{fill:none;stroke:#000;stroke-miterlimit:10;stroke-width:3.38px;}</style></defs><path d="M11785.81,137.91V389.6c0,39.8,0,39.8,21.68,76.23H11754c-1.07-7.73-2.2-16-3.69-26.83-28.25,24.15-58.5,37.05-94.87,28-25-6.19-45.74-18.64-61.86-38.72-36.4-45.35-36-116.32,1-160.18,39.43-46.78,85.57-50.33,156.28-11.36.38-4,1-7.46,1-10.95.09-22.84.05-45.68.05-67.95L11726,157Zm-34,211.75c0-20.4.3-40.8-.19-61.19-.14-5.87-1-12.72-4.15-17.38-29.52-43.78-92.11-43.52-119.92.81-27.71,44.17-30.23,91.14-8.78,138.11,26,57,77.8,67.13,121.21,24.5,6.27-6.16,10.55-16.68,11.31-25.56C11753,389.32,11751.85,369.44,11751.85,349.66Z"/><path d="M11578.75,466h-80.52l23.79-28.14c-10.07-26.76-20.45-54.29-30.87-82h-117.6c-9.24,26.74-18.64,53.93-28.08,81.27l24,28.57h-57.92c37.83-39,43.38-89.69,60.83-135.17q26.25-68.46,48-138.61c5.11-16.57,3.51-35.2,5-52.8,14.45-7.71,17.87,2.2,21.57,11.76q33.9,87.44,67.83,174.87c11,28.27,20.9,57,33.18,84.7C11556.25,429.32,11567.86,446.69,11578.75,466Zm-148-261.83-4.61-.66c-16.1,46.78-32.19,93.56-48.71,141.56h109.48C11467.62,296.79,11449.16,250.49,11430.71,204.19Z"/><path d="M11958.22,231.14c3.84,16.1,7.9,33.16,12,50.22q-2.35,1.72-4.7,3.46c-11.21-9.72-23.13-18.73-33.46-29.29-18.91-19.34-41.91-21.84-65.31-14.13-10.39,3.43-22.76,13.61-25.6,23.25-2.46,8.33,4.61,23.42,12.25,29.89,14.41,12.2,32.11,20.61,48.72,30.1,18.77,10.73,39.18,19.12,56.47,31.79,23,16.89,30.5,46.93,21.61,71.66-8.1,22.52-32.25,38.71-60.24,39.28-26.09.54-52.2.16-78.31.08-2.43,0-4.86-.71-9.71-1.48-3.87-17.09-7.87-34.77-11.87-52.46l4.54-3.22c12.23,10.6,25.76,20,36.39,32,17.34,19.56,65,22.93,89.07,8.85,24.38-14.28,28.26-38.87,5.62-55.73-20.18-15-44.41-24.54-65.47-38.56-18.81-12.52-39.41-25.08-52.71-42.55-25.8-33.89-7.44-76.82,34.75-82.52C11899.5,228.14,11927.7,231.14,11958.22,231.14Z"/><path d="M13414.68,468.62H13334c.45-9.17,7.1-13.62,12.29-18,9-7.63,11.35-16.54,11.17-27.87-.57-35.33,0-70.67-.28-106-.14-19.39-2.84-38.33-13.35-55.3-15.88-25.66-41.57-31.92-67.15-16.14-5.8,3.58-11.08,8-16.54,12.1-13.38,10.11-21.36,21.87-14.74,39.76,2.06,5.54,1.13,12.26,1.15,18.45.08,34.1.63,68.21-.22,102.29-.39,15.16,1.73,28,14.73,37.6,3.73,2.75,6.2,7.2,10.82,12.76h-83.67c7.27-8.2,12.1-14.32,17.64-19.7,5.2-5,8.22-10.4,8.13-17.88-.52-44.62-.44-89.26-1.33-133.87-.36-17.87-6.92-33.95-20-46.7-15.16-14.71-32.7-18.19-51.17-8.27-10.77,5.78-20.58,13.83-29.6,22.17-4,3.66-6.9,10.55-6.95,16-.52,50.22-.2,100.44-.44,150.66,0,7.48,2.45,12.91,7.86,17.89s9.85,10.68,15.2,16.58c-14.2,5.11-58.42,5.84-80.34,1.31,6.17-6.74,11.86-12.14,16.5-18.32,3.16-4.21,6.85-9.51,6.89-14.35.48-55.75.3-111.51.3-167.47l-24.2-19a302.49,302.49,0,0,1,56-17.88c1.17,9.76,2.14,17.84,3.46,28.83,21.49-19.11,43.12-32.92,71.27-31.4s47.56,15.74,61,40.83c8.41-7.47,15.44-14.33,23.1-20.4,24-19,51-26.82,80.31-15.71,33.43,12.65,45.49,40.74,46.48,73.83q1.65,54.83.05,109.72c-.49,17.27,2.28,31.69,17,42.37C13408.13,459.53,13410,462.91,13414.68,468.62Z"/><path d="M12796.08,468.56h-81c1.42-9.44,9.2-13.2,14.17-18.78,4.56-5.14,9-9.59,8.93-17.44-.28-55.1-.15-110.19-.15-166.17l-25.88-18.77c19.78-7.67,37.16-14.54,57.49-17.5,1,9.51,1.89,17.3,3,27.76,7.8-5.65,14-10.39,20.48-14.79,24.76-16.88,51.86-20.63,80-11.52,31.38,10.14,51.69,39,52.39,74,.72,36.53.95,73.1-.05,109.62-.48,17.17,2.06,31.68,16.75,42.37,2.82,2.06,4.68,5.42,9.54,11.24-15.61.28-28.16.59-40.71.7-13,.11-26,0-40.26,0,1.93-10.66,10.1-15,14.89-21.68,3.43-4.78,8.06-10.44,8-15.69-.11-45.78.19-91.64-2.41-137.32-1.68-29.54-23.13-50.15-51-56.76-11.84-2.8-22.12.2-32.41,4.79-4.5,2-8.62,4.89-12.88,7.41-17.35,10.27-25.53,23.66-24.4,45.5,2.13,41.39,1.24,83,.28,124.46-.35,14.86,3,26.45,14.83,35.66C12789,458.17,12791.05,462.14,12796.08,468.56Z"/><path d="M13534.67,308.37c-23.86-21.39-49.94-22.16-78.34-21.65,10.31-23.12,25.42-38,45-48.2,21.65-11.28,44.85-14.57,68.71-8.62,24.79,6.17,39.59,22.27,43.78,47.42a177.7,177.7,0,0,1,2.5,27.62c.27,38.4.55,76.8-.12,115.18-.24,13.8,1.79,25.44,13.62,34.2,3.69,2.74,6,7.29,10.52,12.95-19.77,3.4-37.13,2-56.4,1.37V428.87l-3-.81c-2,2.64-4,5.26-6,7.92-24.91,33.51-72.46,44.19-110.52,24.8-37.51-19.12-55.49-60.3-41.83-100.62,10.22-30.17,33-47.69,64.73-51.5C13501.94,306.92,13516.89,308.37,13534.67,308.37Zm48.92,92.36c-1.31-34.07-9.9-54.86-28-70.78-37.74-33.21-94.94-14.38-104.42,34-6,30.51,17.58,73.21,51.89,84.64C13548,463.53,13585.49,429.25,13583.59,400.73Zm-1-47.27c0-30,1-55.91-.29-81.73-1-21.35-16.73-35.5-35.88-35.41-25.15.11-46.25,19.11-49.91,45.09C13535.32,290.79,13560.54,316.91,13582.58,353.46Z"/><path d="M14341.34,468h-84.27c7.72-8.47,13.41-13.93,18.12-20.13,3.57-4.7,8.38-10.35,8.37-15.57-.11-45.8.18-91.68-2.44-137.37-1.7-29.6-23.21-50.38-50.92-57-11.86-2.86-22.3,0-32.44,4.72-7.24,3.38-13.79,8.29-20.47,12.79-12.68,8.55-18.44,19.53-18,35.8,1.18,43.35.84,86.75.13,130.11-.21,12.78,2.68,22.74,12.71,30.94,4.58,3.73,8,8.9,13.92,15.76h-81.24c1.75-9.56,11-13,15.33-20,3.1-5,7.31-10.59,7.37-16,.54-55.1.33-110.21.33-165.47l-26.84-20,57-17.91c1.05,10.38,1.84,18.18,2.7,26.62,7.49,1.53,11.1-4.48,15.64-7.91,14.15-10.72,29.53-18.32,47.46-20,52.83-4.88,90.8,28.47,91.7,81.32.61,35.93,1,71.91-.2,107.81-.54,16.72,2.57,30.29,16.42,40.58C14334.55,459.27,14336.55,462.51,14341.34,468Z"/><path d="M13968.93,226.37c56.74-3.06,123.37,45.83,123.14,122.55-.19,68.25-54.82,123.26-123.41,122.81-69.47-.46-122.19-59.17-122.18-122.26C13846.5,278.37,13907.32,223.39,13968.93,226.37Zm-90.7,102.91c2.09,10.2,3.75,26.4,8.82,41.46,11,32.5,29.85,59.79,60.09,77.69,29.93,17.72,58.66,16.28,83.28-3.72,15.19-12.35,22.15-29.43,26.37-47.86,7.58-33.09-.17-64-15.26-93.17-14.9-28.8-36.35-51.68-68.11-62.61-31.28-10.76-61.08-.06-79.35,27.59C13883.06,285.33,13880.45,304.22,13878.23,329.28Z"/><path d="M12549.83,134.61h15.9c11.45,29.13,22.84,57.85,34,86.65,25.58,65.82,51.23,131.61,76.45,197.56,5.41,14.13,11.86,27.09,23.75,37,3.15,2.62,5.26,6.45,10.36,12.89-16.53.25-29.78.52-43,.62-13,.1-26,0-40.12,0,3-14.08,16.18-18.67,21.51-31l-31-83h-121.55l-28.59,84c8.86,9.68,16.23,17.75,25.47,27.86-20.59,3.77-38.13,1.76-60.06,1.81,6.54-7.74,10.17-13.23,15-17.43,8.75-7.69,13.48-17.31,17.2-28.06,26.74-77.27,53.9-154.39,80.51-231.69,2.76-8,3.44-16.94,4-25.5C12550.35,156.5,12549.83,146.61,12549.83,134.61Zm63.9,210.85-61.11-152.28c-18.46,53.12-35.44,102-52.89,152.28Z"/><path d="M14357,469.32c-4.24-19.43-8-36.77-11.81-54.1l3.24-2.44c9.21,7.54,18.45,15,27.62,22.63,7.65,6.32,14.27,14.84,23,18.72,26.2,11.66,53.41,12.84,79-1.63s27.28-40.61,3.39-59.15c-14.08-10.93-30.69-18.67-46.31-27.6-17.21-9.84-35.56-18-51.65-29.41-19.35-13.7-32.78-32.06-31.47-57.79,1.07-20.9,12.94-38,33-45.07,7.55-2.67,15.62-5.14,23.51-5.36,24.2-.69,48.42-.25,75.08-.25,4.28,18,8.45,35.52,12.63,53.06l-3.81,2.12c-12.42-10.9-24.93-21.73-37.26-32.74-19.4-17.33-49.84-21-73-8.61-21.51,11.52-25.05,30.78-9,48.95,14,15.83,32.79,24.26,51.3,33.12,15.13,7.23,30.85,13.41,45.34,21.73,18.85,10.81,32.89,26.06,38.17,48.18,6.89,28.89-5.23,55.55-32.38,67.59-8.41,3.73-17.74,7-26.79,7.4-23.61,1.12-47.29.56-70.95.65C14371.64,469.35,14365.49,469.32,14357,469.32Z"/><path d="M13661.11,235.87l-27.25-1.9c18.1-18.86,37.52-31.48,58.37-48.68,1.08,15.24,1.93,27.18,2.93,41.12l35.92,2.18c-10.24,10.31-23.22,3.33-35.37,8.6-.5,3.29-1.66,7.38-1.65,11.46q.24,83.68.82,167.37a76.27,76.27,0,0,0,1.22,14.81c4.74,23,18.34,33.24,42.29,32.45,2.27-.08,4.56.54,10.19,1.26-4.47,2.88-6.13,4.81-8,5-40.4,4.56-81.32-21.11-79.81-69.2,1.49-47.69.32-95.47.32-143.2Z"/><path d="M12955.28,246.07l58.64-18.73c.41,9,1,15.51,1,22,.07,56.32.41,112.64-.21,169-.17,15,1.37,28.05,14.72,37.46,3.23,2.28,5.14,6.42,10,12.77-28.58,1.36-53.88.75-79.18.55l-1.92-3.77c5.22-5.72,11-11.05,15.49-17.29,3.38-4.71,7.19-10.57,7.24-15.95.48-53.83.22-107.67.11-161.51,0-1.8-.73-3.59-1.26-6Z"/><path d="M13776.85,264.36c-3.35-2.5-6.77-5.08-10.24-7.61s-6.93-5-10.55-7.58c9.94-8.59,30.06-15.74,55.45-19.44v20c0,56.32.43,112.65-.3,169-.19,14.56,2,26.62,14.09,35.9,3.74,2.86,6.25,7.31,11.7,13.92-28.55,1.49-54.08.65-80.5.55.11-9.59,7.41-13.22,12.13-18.08,5.9-6.05,9.64-12.1,9.58-21.06-.33-52.6-.17-105.21-.25-157.81C13778,269.71,13777.29,267.29,13776.85,264.36Z"/><path d="M12994.2,152.22a22.61,22.61,0,0,1,22.85,23.71c-.4,12.64-10,21.94-22.57,22-13.48,0-23.33-10.07-22.9-23.48A22.85,22.85,0,0,1,12994.2,152.22Z"/><path d="M13814.49,175.54a22.79,22.79,0,0,1-24.18,22.37c-12.62-.71-21.37-10.28-21.19-23.18a22.52,22.52,0,0,1,23.95-22.44A22.78,22.78,0,0,1,13814.49,175.54Z"/><path d="M14990.06,441.75l26.34,28.47H14959c.92-2.85.94-5.82,2.39-6.94,19.88-15.4,26.32-38.17,34-60.37,23.66-68.41,47.74-136.68,71.05-205.21,3.5-10.31,4.33-21.68,5.3-32.65.86-9.69.18-19.52.18-30.34h17c13.82,35.13,27.56,69.56,40.93,104.14,24.55,63.47,48.24,127.28,73.77,190.35,5.79,14.3,17.63,26.17,27.87,40.85h-82.68l23.92-28-32.25-85.53h-120.88C15009.71,385,15000.06,412.85,14990.06,441.75Zm146.9-94.87-59-146.51-4.42.44c-16.72,48-33.44,95.95-50.9,146.07Z"/><path d="M15261.16,266.65l-25.42-19.92,59.29-18.58v37.9c22-27.55,51.07-34.39,85.63-36.73-2.73,12.75-5,23.15-7.15,33.45-14.58,2-27.55,3.07-40.21,5.65-28.46,5.81-37.64,17.32-37.66,45.83q0,61.2.15,122.4a51.83,51.83,0,0,0,.85,6.35c6.73,7.77,13.9,16,23.46,27.09h-83.25l24.31-27Z"/><path d="M15410.76,237.19l-28.07-3.49,60-48.36c1.13,16.37,2,28.25,2.87,41.54l36.16,3.06-.06,4.64-35.14,1.95c-.77,4.77-2.17,9.4-2.16,14,0,54.45.17,108.9.68,163.34a92.75,92.75,0,0,0,3.59,23.72c5.36,19.29,14.58,26.34,34.34,27.9,3.87.31,7.7,1.17,13.86,2.14-30.59,13.14-73.41-8-82.27-38.88-2.68-9.35-3.53-19.48-3.6-29.27-.36-47-.16-94.05-.17-141.07Z"/><path d="M2091.44,414.09c-5.06,5.84-8.79,9.89-12.22,14.18-31.73,39.57-101.26,48.35-142,25.93-75.91-41.77-79.2-143.47-10.39-187.44,31.17-19.91,63.26-20.19,95.64-3.37,27.36,14.22,47,36.31,61.88,62.81,7.84,14,15,28.36,24,45.49,12-24.19,22.76-46,34.18-69-14.87-6.9-28.84-12.16-41.56-19.56-20.86-12.15-42-24.34-61-39-18.66-14.37-27.71-34.72-24.22-59.12.09-.61.1-1.24.19-1.85,3.39-23.88,21.71-41.69,48.73-47.38,30.49-6.41,62.45,5.44,75.71,28.09,11.64,19.87,8.12,48.14-8.61,67.55-4.4,5.1-9.27,9.81-15.75,16.62,8.78,4.05,16.33,7.59,23.93,11,7.33,3.3,14.72,6.48,23.35,10.26,19.6-20,40.46-38.67,69.3-43.89,9.55-1.73,19.43-1.67,31.88-2.64-3.43,12.67-6.07,22.43-8.61,31.83-28.82,4.52-59.1-6.12-85.08,17,15.5,8.58,29,15.75,42.24,23.46,21.58,12.59,37.82,29.76,46.56,53.65C2279,402,2249.4,456.16,2195.19,465.2c-37.05,6.18-67.44-5.66-90.93-34.88C2100.4,425.52,2096.62,420.65,2091.44,414.09Zm-4.14-6.2c-11.66-22-22-42.49-33.2-62.4a345.52,345.52,0,0,0-24.22-37.35c-12-15.93-25.83-30.19-44-39.46-16.44-8.41-32.82-10-49.85-.75-42.51,23.08-63.06,70.88-48.6,116.85,13.79,43.83,44.77,70.32,90,75.56C2023.54,465.69,2061.29,448.13,2087.3,407.89Zm24.52-29.64c10.58,22.14,22.26,42.45,39.19,59.28,29.9,29.71,70.1,25.41,94-9.69,11.65-17.13,13.13-34.91,1.6-52.15-23.7-35.47-59.93-53.64-98.41-70.66ZM2108.17,247c9.23-9.63,17.38-16.46,23.43-24.79C2147,201,2145.14,174.92,2128,157.7c-22.73-22.91-64-25-88.72-4.41-13.36,11.09-16.07,25-6,39.26,5.62,7.94,12.63,15.59,20.62,21.06C2070.73,225.09,2088.57,235,2108.17,247Z"/><path d="M1662.86,521.46c-7.31,8.62-13.54,17.13-20.95,24.46a70.24,70.24,0,0,1-79.42,13.27c-38-18.18-42.39-65.87-7.1-88.66,13.77-8.89,30.5-13.44,46.16-19.2,9.68-3.56,19.9-5.69,33.88-9.57-53.89-7.37-87.71-34.37-100.13-82.15-11.7-45,.52-85.75,39-114.15,40.79-30.07,84.45-28.78,129.54-3.6l59.61-31.81V247.8l-47.79,2.1c4.33,5.78,6.68,9.21,9.31,12.41,47.52,57.84,26.24,143.67-43.49,171.57-22.41,9-46.33,14.17-69.5,21.28-11.89,3.65-24.44,6.23-35.23,12-10.62,5.68-21.57,13.21-28.48,22.72-12.28,16.9-3.94,34.9,16.53,39.5s39.81-.46,57.2-11.2c13.17-8.14,25.34-17.93,37.71-27.32,12.87-9.76,25.16-20.31,38.23-29.8,17.34-12.6,36.86-17.39,58.32-14.33,19.47,2.78,34.15,12.12,40.71,30.89,6.34,18.1,3.91,35.52-8.88,50.59s-29.7,22.43-49.21,23.07c-24.48.81-46.74-5.94-65.82-21.78C1669.84,526.8,1666.46,524.28,1662.86,521.46Zm62.19-160c-.18-51.34-34.79-102.52-80-120.63-37.88-15.2-73.88,2.18-85.11,41.08-16.54,57.35,30,133.78,88.73,145.67,26.76,5.42,51.08-4.3,64.85-26.12C1721.74,388.54,1725.51,374.35,1725.05,361.48Zm-57.87,150c13.91,19.59,38.17,32.36,59.12,31.73,22.74-.68,40-14,43.12-33.7,3-18.92-3.26-34.25-19.24-45.05-14.38-9.72-33.57-8.95-48.91,2.27C1685.37,478.4,1675,494.37,1667.18,511.52Z"/><path d="M73.17,465.89,99.63,437V159.46l-24.5-27.34c4.47-.71,6.72-1.38,9-1.38,41.08,0,82.17-.56,123.23.28,38.14.79,65.83,24.81,71.82,60.38,3.56,21.14-2.51,39.14-18,53.94-3.91,3.73-8.1,7.15-13.81,12.16,5.22,1.69,8.54,2.84,11.9,3.84,48.77,14.45,81.89,60.93,76.64,107.59-6.3,55.91-45.1,93.74-100.24,96.6-21.72,1.12-43.55.33-65.34.35C139.28,465.91,108.29,465.89,73.17,465.89Zm58.48-6.49c36.46,0,70.59.4,104.69-.17,17.23-.29,30.52-9.59,41.51-22.18,34.91-40,34.14-114-1.74-152.75-10.77-11.65-23.32-20.37-42-20.34-21.5,12.35-44.56,24.6-66.55,38.53-18.93,12-34.42,28.53-35.51,51.87C130.45,388.91,131.65,423.58,131.65,459.4Zm.2-323.09V331.88c15.71-24.8,36.59-37.89,58.23-50.18a184,184,0,0,0,21.52-14.78c15.58-12.12,27.05-27.37,33.13-46.23,11.28-35-9.3-72.85-44.79-81.59C178,133.7,155.68,134.73,131.85,136.31Z"/><path d="M1132.28,259V170.59l-26.23-19.31,56.76-17.85V435.74l26.38,28.71h-55c-.58-9.07-1.2-18.68-1.92-29.77-2.89,1.44-5.76,2.12-7.57,3.87C1066.48,495,967.45,464.08,947.3,378.7,936,331,946,287.55,983,252.69c30.66-28.93,91.48-44.39,137.82-3.18C1123.53,251.94,1126.44,254.16,1132.28,259Zm.29,10.66c-9.26-7.87-18-16.8-28.13-23.64-38.1-25.65-76.87-18.44-100.86,20.69-10.13,16.5-17.93,35.81-21.21,54.79-7.35,42.62,1.19,82.7,30.85,116.1,20.83,23.46,45.11,28.39,74.14,16.86A100.07,100.07,0,0,0,1132.57,419Z"/><path d="M1499.56,437l25.69,27.47h-82.42l24-26.35c0-49.51.88-97.77-.65-146-.36-11.44-7-23.89-13.85-33.69-18.43-26.27-49.8-32.35-77.46-15.66-11,6.66-20.55,15.79-30.63,23.7V437.26l25.22,27.31h-82.52c9-9.67,16.81-18.05,25.3-27.15V262.72L1286,244l56.12-18c.75,10.8,1.37,19.68,2.19,31.41,6.61-5.1,11.7-9.25,17-13.09,33.43-24.19,71.81-26.69,103-6.67,17,10.93,28.13,26.3,31.9,46a196.9,196.9,0,0,1,3.18,35.06C1499.79,358.34,1499.56,398,1499.56,437Z"/><path d="M4044.11,256.52c10.45-7.28,18.71-13.69,27.59-19.09,37.9-23.05,84.79-15.39,111,17.7a69.14,69.14,0,0,1,15.1,43.05c.49,37.17.55,74.34.76,111.51.05,8.64,0,17.28,0,26.1,8.14,9,15.95,17.67,26.42,29.26-28.47,1.5-53.74.69-83.89.69l26.67-28.89c0-16.65.06-35.18,0-53.7-.1-27.25-.21-54.51-.47-81.77-.15-16-5.41-30.35-15-43.11-18.9-25.08-48.54-31.55-76.2-16.52a91.59,91.59,0,0,0-13.88,9.34c-6.23,5.06-12,10.62-18.09,16V437.53c7.49,8,15.38,16.49,25.31,27.14h-82.63L4012,436.94V263.05l-26.12-19.37,56.61-17.89C4043.05,236.74,4043.5,245.23,4044.11,256.52Z"/><path d="M721.93,262.46,696.1,243.77l55.81-17.65c.79,10.58,1.44,19.35,2.28,30.64,5.71-4.14,10-7.12,14.19-10.3,22.77-17.42,48.07-26,76.83-20.56,38.65,7.3,63.06,36.88,63.8,78,.66,37.15.17,74.32.19,111.49v21l26.38,28.58c-28.54,1.6-54,.5-84,.84l26.56-29c0-45.54.68-91.32-.32-137.06-.43-19.66-8.51-37.27-23.77-50.88-18.53-16.51-42.13-20.75-63.85-8.81-13.35,7.33-24.94,17.82-36.37,26.19v170l25.22,28.12H697.38l24.55-27.14Z"/><path d="M584.72,305.49c-21.86-20-49.11-23.64-80.84-22,15-26.88,33.4-44.79,60.11-53.47,16.2-5.26,32.67-6.87,49.7-3.36,29.06,6,48.09,25.43,49,54.95,1.31,42.73.68,85.52.86,128.28,0,8.64,0,17.28,0,25.79l25.79,28.69H633.21V424.11l-3-.76q-4.28,5.59-8.55,11.19c-21.74,28.32-51.78,36-85,30.47-32.48-5.42-55.19-24.71-65.56-56.56-16.25-49.91,16.42-98.76,69-102.79C554.9,304.53,569.8,305.49,584.72,305.49Zm47.68,79a83.8,83.8,0,0,0-25.7-55.77c-20.49-19.82-51.22-24.44-75.89-11.89-23,11.71-36.63,38.55-32.07,65.58,5.14,30.4,22.32,52.11,51.33,63.22C591.6,461.51,632.39,432.88,632.4,384.47Zm-.46-34.34c0-26.44.71-52.91-.28-79.32-.54-14.65-6.17-28.38-21.07-34.46-16.1-6.57-32.14-3.68-45.71,6.67-11.27,8.6-19.7,19.84-21.31,35.34C584.23,288.81,610.72,315,631.94,350.13Z"/><path d="M3419.2,305.72c-21.53-20-48.78-23.77-81-22.41,15.11-26.8,33.35-44.7,60-53.29,15.57-5,31.35-6.78,47.8-3.68,31.51,5.95,50.9,26.7,51.49,58.78.79,42.71.3,85.46.36,128.19,0,7.41,0,14.83,0,22.6L3524,465h-55.42V422.75l-3.16-1.25c-3.25,4.5-6.39,9.08-9.76,13.49-24.3,31.75-72.4,41.28-109.81,21.8-36.13-18.83-53-60.74-39.77-99.83,10.45-31,33.67-46.92,65-50.89C3386.79,304.06,3403,305.72,3419.2,305.72Zm-86.54,66.12c-.27,35.67,24.19,67.06,59.25,76,31.86,8.17,62.12-8.64,71.72-39.84,10.06-32.7-7.67-74.74-38.15-90.47C3381.59,294.92,3333,323.32,3332.66,371.84Zm45.63-93.37c40.72,9.81,66.88,37.95,88.4,75.68.48-6,.75-7.84.75-9.68,0-17.94.38-35.88-.14-53.8a147.75,147.75,0,0,0-3.36-29.39c-4.94-21-20.11-30.63-41.62-27.54C3398.89,237.11,3383.91,252,3378.29,278.47Z"/><path d="M3857.36,467.78c-63.48,4.25-122.64-47.87-126.2-113.74-4.15-76.73,53-125.12,111.33-130.08,72.15-6.14,130.41,50.34,133,114.35C3978.38,408.8,3928,464.77,3857.36,467.78Zm87-94.36c-3.14-55-22.92-96.73-65.62-125.49-45.25-30.47-96.68-11.29-111.93,40.76-16.4,56,14.86,130.81,66.18,158.46,45.35,24.42,91.26,5.82,106-43.51C3942.34,392.51,3943.16,380.64,3944.39,373.42Z"/><path d="M2666.68,263l-27.28-19.63L2696,225.43c.43,7,1,12.33,1,17.62q.12,68.82,0,137.63c0,17.78,3.75,34.42,14,49.24,19.83,28.56,52.29,35.76,81.64,17.24,10.4-6.57,19.44-15.26,29.06-22.94V262.62l-26-19.5,56.44-17.64V464.8h-14.94l-15.19-30.87c-9.85,6.89-18.6,13.78-28.07,19.49-38.67,23.33-86.38,15.22-112.4-18.83-10.6-13.87-14.73-29.87-14.8-47-.13-34.71-.11-69.43-.15-104.15C2666.67,276.64,2666.68,269.86,2666.68,263Z"/><path d="M2398.69,437v-278l-24.61-27.25h81.5l-24.36,27.14V437.58l22.66,24.27-1,3.93c-25.28.2-50.56.16-79.94-.06Z"/><path d="M2579.36,171.91l-26-18.78,57.07-18.68c.81,51.89.27,101.63.37,151.35.1,50.19,0,100.37,0,150.83l25.69,27.92h-81.87l24.71-27.82Z"/><path d="M2491.09,171.49l-25.19-18.16a421.68,421.68,0,0,1,56-17.68V435.22l26.27,29.29h-81.85l24.74-27.2Z"/><path d="M344.37,464.52l25.28-27.06V262.6l-25.92-19.45,56.82-17.84v42.27c19.22-33.1,51.31-37,86.53-42.46-2.8,12.46-5,22.32-7.52,33.51-9.21.92-17.85,1.1-26.19,2.78-10.86,2.18-22,4.37-32.06,8.73-12.85,5.55-20.28,16.35-20.33,30.8-.16,45.17-.06,90.33-.06,135.48l25.94,28.1Z"/><path d="M3235.56,437l27.08,28.8c-29.67.17-55.2.1-84.8,0l27.1-29.81V263l-27.3-19.57,57.42-18v39.79c20.11-30.24,51.05-34.92,85.89-39.94-2.51,12.1-4.56,22-6.95,33.4-8.94.86-17.54,1-25.85,2.65-10.88,2.13-22,4.24-32.14,8.52-13.65,5.79-20.63,16.89-20.54,32.38C3235.73,346.82,3235.56,391.4,3235.56,437Z"/><path d="M2903.83,465.62c-4.25-18.9-8.15-36.26-12-53.63l2.73-2.16c11.91,10.15,24.31,19.78,35.62,30.54,23.4,22.26,50.84,24,79.95,16.24,7.57-2,15-6.33,21.24-11.21,17.24-13.57,18.95-32.69,3.81-48.42-7.63-7.94-17-14.61-26.59-20.2-13.93-8.13-29-14.25-43.08-22.2s-27.91-16.32-40.74-26c-7.23-5.44-13.35-13.18-18-21-21.12-35.64-1.79-74.74,39.4-80.44a177.84,177.84,0,0,1,22.35-1.58c19.89-.21,39.78-.07,61.31-.07,4.3,18.08,8.38,35.2,12.45,52.33-1.09.6-2.18,1.2-3.26,1.81q-18.75-16.47-37.48-32.94c-21.26-18.73-56.52-20.83-79.65-4.72-14.75,10.28-19,26.66-7,40,10.52,11.76,23.78,21.88,37.54,29.8,20.41,11.75,42.7,20.21,63.49,31.37,21.35,11.45,35,29,38.48,53.84,3.86,27.31-6.81,49.58-32.06,60.65-9.51,4.16-20.24,7.26-30.52,7.63C2963.13,466.28,2934.48,465.62,2903.83,465.62Z"/><path d="M4368.48,227.36q5.85,25,11.74,50.15l-2.82,2.23q-17.62-15.39-35.25-30.8c-22.86-20-49.07-23.63-75.93-10.34-22.26,11-27.75,31.08-9.82,47.88,14.64,13.71,33.17,23.61,50.8,33.77,15,8.65,31.65,14.54,46.83,23,22.47,12.47,36.32,31,38.75,57.56,2.23,24.38-6.56,42.85-27.81,54.15-10.16,5.4-22.15,9.57-33.51,10.11-29.16,1.41-58.44.47-89.47.47-4.07-18.08-8.05-35.82-12-53.57l3.12-1.9q19.59,16.83,39.18,33.66c23.77,20.35,66.43,22.88,92.52,5.5,23-15.32,25.76-37.87,4.78-55.6-13.12-11.08-28.79-19.31-43.8-28-18.26-10.57-37.88-19-55.33-30.71C4252,322.5,4238,305.83,4237.18,281.7c-1.06-29.71,15-51.27,44.83-53.83C4309.76,225.49,4337.88,227.36,4368.48,227.36Z"/><path d="M3628.94,463.76c-48.89,9.06-82.93-18.06-83.21-64.43-.29-48.37-.07-96.74-.07-145.1V232.79l-29.69-3,59-46.67c.78,15.49,1.39,27.87,2.07,41.45l37.47,1.64.15,3.86h-37.07c-.65,7.24-1.45,12-1.46,16.74-.08,49.61-.25,99.22.12,148.83a161.74,161.74,0,0,0,3.59,33.13c5.15,23.46,15.54,31.39,40.33,33C3622.38,461.88,3624.56,462.72,3628.94,463.76Z"/><path d="M3116.88,187.57v36.59l38.38,2.41c-.06,1.37-.13,2.75-.19,4.12h-37.18c-.52,7.1-1.25,12.46-1.26,17.81-.09,47.73-.33,95.46.14,143.18a188.14,188.14,0,0,0,4.16,38.69c4.86,21.81,17.22,30.75,39.83,31.29,2.37,0,4.74.28,8.8.54-31.24,11.66-69.86-7-79.6-37.89-2.91-9.25-3.63-19.48-3.71-29.28-.36-47.72-.16-95.45-.16-143.17V232.21l-24.26-1.72-1.63-3.17,52.63-41.94Z"/><path d="M3661.82,262.12l-25.9-18.85,56.38-17.87c1.52,25.48.57,48.62.74,71.69.17,22.91,0,45.82,0,68.73v69.8L3719,464.56h-82.36l25.18-26.9Z"/><path d="M1222.53,262.07c-4.93-3.43-9-6.23-13.06-9.08-3.52-2.47-7-5-13.41-9.55l56.71-18V435.46l27.11,29.27h-82.42l25.07-27.67Z"/><path d="M1256.92,171.85c.21,12.48-9.37,22.09-22.18,22.25a22.24,22.24,0,0,1-22.41-22.2c-.21-12.42,9.45-22.07,22.25-22.21C1247,149.55,1256.71,159.19,1256.92,171.85Z"/><path d="M3674.6,149.67c12.44.07,21.61,9.7,21.54,22.61s-9.36,21.91-22.26,21.81a22.38,22.38,0,0,1-22-22.62C3651.91,159.26,3662,149.6,3674.6,149.67Z"/><path d="M10630.78,456.24c16.55-9.6,21.51-22.3,21.07-39.68-1.1-43.37-.36-86.79-.36-130.2V266.79l-26-20.53,56.95-17.95c1,10.58,1.82,18.82,2.65,27.54,13.74-7.94,25.87-16.71,39.32-22.41,54.92-23.26,110.94,12,112.8,71.22,1.15,36.54.91,73.17.11,109.73-.36,15.87,2.28,29.21,15.62,39.27,3.19,2.4,5.12,6.45,9.41,12.08h-81c3.1-4.85,4.33-8.63,6.93-10.54,15.88-11.68,18.31-27.54,17.65-46-1.14-31.58-.11-63.24-.43-94.85-.2-19.52-3.75-38.17-16.49-54.1-18.69-23.37-45.33-29.88-71.38-15.37-12.25,6.82-22.82,16.62-33.57,24.64,0,54.32-.2,106.38.3,158.44.05,5.52,3.36,11.59,6.68,16.35,4.51,6.46,10.49,11.9,15.84,17.78-.33,1.43-.65,2.86-1,4.29h-62.8c1.4,6.93,2.09,10.45,2.82,14,7.35,35.51-14.91,65.69-51.42,69.74-31.67,3.5-51.88-3.16-83.36-28-2.53,3.22-5.31,6.28-7.55,9.7-17.13,26.08-41.54,36.14-72.14,32.86-23.82-2.56-44.6-20-49.58-41.77s5-43.8,27.24-56.11c11.82-6.54,25.17-10.46,38-15,8.73-3.06,17.83-5.07,31.32-8.83-44.17-8.82-74-29.92-89.74-67.86-11.76-28.34-10.84-57.13,1.06-85.14,22.48-52.86,91.06-86.58,162.53-46.13l58.76-31.76v39.06h-45.65c9.44,15.14,19,26.75,24.55,40,25.07,59.62-4,124.61-65.69,146.64-25.15,9-51.66,14.15-76.87,23a187.47,187.47,0,0,0-42.52,21.88c-9.58,6.49-13.55,17.9-9.65,29.86,3.83,11.71,14.35,15,25,16.45,19.4,2.65,37.26-3.11,53.15-13.51,14.51-9.51,27.92-20.68,41.72-31.25,8.39-6.41,16.45-13.25,24.9-19.57C10568.37,443.43,10598.26,437.18,10630.78,456.24Zm-58.71-101.54c-3.52-43.33-25.76-82.94-71.16-106.86-44.25-23.3-88.52,2.06-92.91,51.62-4.13,46.67,24.68,98.7,66.93,119.53,16.24,8,33.15,14,52,8.19C10555,418.48,10571.71,394.56,10572.07,354.7Zm-57.84,154.93c15.75,20.67,34.23,29.6,56.21,31.39,20.61,1.68,37.11-8.28,43.58-25.09s.52-37.4-13.94-48.54-36.73-11.83-51.67,1.87C10535.48,481.12,10525.45,496.12,10514.23,509.63Z"/><path d="M9171.31,243.72l58.21-31.13v39.17h-45.43c3,5.18,3.92,8,5.8,10,48.23,51.05,35,146.43-46.92,176-24.51,8.86-50.19,14.49-75.09,22.37-11.77,3.72-23.63,8.13-34.16,14.38-7.07,4.19-13.36,11.36-17.36,18.63-8.24,15-2.26,28.46,14.12,33.65,23.37,7.4,44.5-.12,63.72-12.57,15.06-9.77,28.68-21.74,43-32.6,11.38-8.62,22.4-17.87,34.5-25.34,17.58-10.86,37-14.63,57.37-9,18.88,5.2,32,16.9,36.54,36.06,4.69,19.76-1.64,36.87-16.5,50.48-22,20.17-63.19,23.06-92.93,6.41-9.09-5.09-17.31-11.7-26.67-18.12-3.95,5.41-7.71,11-11.91,16.24-18.74,23.47-48.62,33.14-77.14,24.24-21.84-6.81-36.89-20.74-39.89-44.34-2.9-22.85,7.27-40.17,26.71-51.1,11.77-6.63,25.09-10.67,38-15.18,9.26-3.25,18.93-5.38,29.91-8.41-80.17-26.28-113.9-85.8-87.39-151.6C9029.14,239.05,9097.44,202.83,9171.31,243.72Zm19.8,117.38c-.09-49.43-37.94-103.5-82.69-118.12-37.69-12.33-72.77,8.33-80.09,47.16-9.73,51.59,24.17,110.94,72.53,132.47C9145.56,442.51,9190.79,414.4,9191.11,361.1Zm-56,151.42c16.62,19.65,36.21,28.82,59.92,28.53,20-.24,33.56-10.77,38.82-28.73,5-17.12-1.39-35.11-16.35-45.9-13.1-9.45-33.14-9.55-47.22.19C9154,477.87,9143.54,493.57,9135.15,512.52Z"/><path d="M9583.69,136.75c54.54-4.73,106.93-9.78,157,8.58C9811,171,9854.58,239,9849.59,310.52c-5.25,75.21-57.26,136.25-131.17,152.27-43.57,9.45-87.78,2.84-131.67,4.74q-1.14-1.87-2.26-3.75c3.37-4.57,6.06-9.92,10.25-13.56,10.36-9,12.86-19.89,12.78-33.14-.46-76.2-.65-152.4.11-228.6.16-16.63-2.73-30.36-16.09-41.09C9588.8,145.19,9587.19,141.6,9583.69,136.75Zm57.83,323c13.75,0,24.91-.13,36.06,0,39,.56,69.8-16.13,93.75-45.46,53.74-65.79,52-167.09-3.33-231.58-30.54-35.61-84.73-52-126.48-38.16Z"/><path d="M8593.81,176.35l-25.55-20.28,55.91-17.65c4.76,33.78,1.8,65.71,2.32,97.45.53,32.08.12,64.18,1.76,97.12,23.52-34.9,54.34-61.07,90.93-82.24L8709.49,230h59.7c-27.44,18.9-59.34,31.19-85.42,55.52,33.73,59.1,53.86,124.19,96.32,180.11h-71.36c5.42-7.92,10-14.62,15.7-22.9-21.23-43.75-42.73-88.06-65.25-134.45-17.43,19.25-29.58,38-32,61.87a157.87,157.87,0,0,0-.58,16.71c.21,27.34-6.72,56.75,24.51,74.78-14,6.74-56,7.9-79.89,3.07,2.42-3.83,3.83-8.05,6.76-10.38,13.41-10.7,16.34-24.25,16.14-40.95-.85-71.85-.36-143.73-.36-215.6Z"/><path d="M8935.66,424.53c-32.62,41.84-71.91,53.28-113.92,35.47-33.36-14.13-55.11-51.83-47.61-88,3-14.48,11.26-28.71,20.1-40.93,9.68-13.38,25.3-20.25,41.7-22.54,15.06-2.1,30.41-2.12,47.7-3.18-21.17-18.81-46.3-18.45-73-20.53,15.46-31.56,39.08-49.35,71.35-55.76,9-1.79,18.64-1.6,27.89-1,35.68,2.48,57.42,24.19,58.32,59.92q1.48,59.49.14,119c-.46,19.5.86,37,18.55,49.28,2.2,1.54,3.19,4.8,6.1,9.43h-54.87C8937.34,452.79,8936.59,440.23,8935.66,424.53Zm-.33-34.75a82.88,82.88,0,0,0-21.71-55.7c-18.49-20-48.54-26.57-73.22-15.93-23.39,10.08-37.26,33.27-35.15,59.92,2.35,29.56,17.55,51.32,43.74,64.48C8891,463.64,8935.32,436.18,8935.33,389.78Zm-1.69-41,4-1.38c-1.21-26.84-.38-54-4.2-80.44-3.75-26-25.83-36.29-50.56-26.83-18.11,6.92-29,20-33.4,39.74C8888.11,290.33,8914.31,315.34,8933.64,348.73Z"/><path d="M8324.76,465.81h-55.28c-.74-12.95-1.46-25.51-2.35-41.16-14.61,19.55-30,33.7-51.9,40-63.34,18.24-121.43-33.93-108.57-98.08,6.56-32.77,33.22-56.07,69.78-59.57,13.87-1.33,28-.22,42.05-.22-20.81-18.52-47.26-20.85-77.06-21.43,16.69-32,40-50.05,72.42-56.4a97.16,97.16,0,0,1,22.3-1.29c40.9,1.54,62.87,23.59,63.59,64.43.55,31,.15,61.94.17,92.91,0,8.67.55,17.39-.12,26-1.3,16.84.9,31.92,16,42.68C8319,456,8320.74,460.21,8324.76,465.81Zm-187.69-88.33c-.89,16.77,7,33.34,19.84,47.49,34.29,37.73,91.16,30.38,106.6-13.46,11.36-32.24-5.64-75.05-36.1-90.9C8183.88,298,8136.87,326,8137.07,377.48ZM8268.12,349c0-16,.56-32.07-.17-48.05-.62-13.46-1.6-27.11-4.53-40.21s-12.31-20.93-26-23.28c-25.13-4.33-55.3,17.64-54.8,42.89C8220.41,290.84,8246.52,315.89,8268.12,349Z"/><path d="M7935.84,135.28c8.53-.82,13.34-1.67,18.15-1.68,34.24-.11,68.49-.23,102.73,0,18.18.13,35.62,2.79,52,12.15,36,20.56,49.82,80.69,5.85,108.68-22.49,14.33-45.53,27.95-69.16,40.31-36.68,19.19-56,47-52.9,89.67,2,28.36-6.76,59.14,26.59,78.2l-3.39,2.88h-79c4-5.44,6.36-10.57,10.32-13.58,12.31-9.35,14.25-21.57,14.15-36.08-.54-76.21-.69-152.44.09-228.65.18-16.73-2.75-30.32-16.66-40.6C7941.81,144.52,7940.13,140.93,7935.84,135.28Zm58,188c20.26-14.11,39.36-28.64,59.68-41.2,20.55-12.7,38.22-27.57,48.94-49.46,15.28-31.18,3.77-69.93-25.85-83.11-26.25-11.67-54.09-9.86-82.77-6.91Z"/><path d="M10100.68,284.7h-70.15c16.24,11.26,35.46,20.24,48.76,34.63,39.64,42.92,21.58,116-32.88,140.18-62,27.52-145-6.6-167.62-68.85-24-66.14,13.27-139.74,81-160.06,46.86-14,100.5,2,131.73,39.45C10094.22,273.26,10096,277.17,10100.68,284.7Zm-180.43-1.31c-3.52,4.73-5.29,6.54-6.37,8.69a91.88,91.88,0,0,0-4.22,10.27c-11.54,32-4.87,62.52,9.91,91.41,23.78,46.46,71.72,66.64,118.92,51.36,37-12,58.48-48,51.31-85.87-6.47-34.21-35.76-62.7-76.68-69.05C9982,285.37,9950.19,285.41,9920.25,283.39Zm133.33-6.9c-7.6-22.66-27.8-36.58-54.35-38.38-28-1.89-59.45,14.73-71.48,38.38Z"/><path d="M9463.13,284.63h-70.79c14.59,7.65,26,12.37,36,19.13,27.31,18.39,41.91,43.88,38.64,77.36-3.53,36.16-21.79,63.43-55,78.47-60.42,27.36-142.87-6.36-165.84-66.65-24.87-65.24,9.85-139.89,76.67-160.78,50.05-15.64,94.72-4.15,131.56,33.89,4.14,4.28,7.28,9.5,10.89,14.28Zm-178.74.73c-2.76,4.87-4.92,7.93-6.37,11.3-22.18,51.45,9,126.23,61.26,147,46.64,18.56,100.34-2.91,114.6-45.83,13.71-41.22-8.61-83.83-52.49-101.36C9363.67,281.42,9324.44,285.61,9284.39,285.36Zm138.29-8.42c-12.93-27.56-34.07-38.35-59.59-38.46-29.13-.13-53.6,11.53-71.34,38.46Z"/><path d="M8541.94,401.05h18.5c-9.39,40.22-61.14,70.27-114.81,67.46-57.51-3-104-47.27-111.7-106.4-7.64-58.45,28.37-112.81,86.9-131.2,50.14-15.75,110.44,6.33,133.35,49.82-20.74,2.86-39.48,5.75-55.2-14-8.11-10.16-21-17.49-33.17-23.27-35.85-17.09-74.1-2.54-90.07,33.83-18.9,43-9.65,83.84,12.72,122.61,14.63,25.35,34.92,45.12,63.61,54.6,31.9,10.53,63.31-1.82,79.46-31.29C8535.37,416.24,8538.35,408.77,8541.94,401.05Z"/><path d="M10127,468.64l-13.54-59.38c6.88,3.87,10.64,5.29,13.53,7.73,10,8.42,19.55,17.28,29.41,25.84,24.24,21,65.63,23.41,92.23,5.37,21-14.24,23.41-36.23,3.94-52.91-12.11-10.37-26.53-18.25-40.5-26.24-17.25-9.85-35.68-17.75-52.53-28.19-14.83-9.19-27.52-21.24-34-38.36-13.61-36.06,5.86-70,44.19-73.17,26.54-2.19,53.4-.42,82.7-.42l11.46,50.93-4.29,2.51c-11.43-10-23.42-19.46-34.16-30.15-18.51-18.44-40.58-20.42-64-14.3-12.83,3.36-24.56,10.23-27.89,24.7-3.39,14.75,4.55,25.92,15.63,33.26,17,11.26,35.36,20.45,53.17,30.47,16.73,9.41,34.71,17.15,50,28.53,22.52,16.82,29.37,41.48,23.16,68.16-5.67,24.4-24.61,38.28-48.14,40.93C10194.8,467.62,10161.78,467.22,10127,468.64Z"/><path d="M10313,266.28l-26.53-20.19,57-18.37c.59,9.64,1.4,16.73,1.42,23.83.1,53.94.43,107.89-.18,161.83-.18,15.67,1.48,29.36,15.19,39.46,3.59,2.64,5.65,7.35,9.92,13.17h-80.13c2.88-5.05,3.84-9,6.35-10.79,16.08-11.72,17.54-27.94,17.22-46.13C10312.42,362,10313,314.89,10313,266.28Z"/><path d="M10348,176.54c-.48,12.26-10.81,22.27-22.93,22.2-12.77-.07-23.47-11.69-22.51-24.44s10.93-21.35,23.88-20.85A22,22,0,0,1,10348,176.54Z"/><path d="M7177.8,239.16l58.48-31.56v38.63h-46.47c3.54,5.59,4.8,8.23,6.63,10.39,52.73,62.41,27.84,151.64-50,177.56-24.78,8.25-50.63,13.4-75.16,22.24-15.42,5.55-30.87,13.5-43.24,24-6.35,5.39-10.25,20.17-7.44,27.9s15.68,16.71,23.65,16.28c18-1,37.73-3.87,53.07-12.48,22.52-12.65,41.93-30.83,62.47-46.9,30.29-23.71,62.3-33.53,97.59-12.55,17.34-9.69,22-23.6,21.54-42.18-1.15-49.55-.39-99.15-.39-149.39l-26.13-20.15,55.84-17.48c1.29,10.56,2.31,18.82,3.55,28.93,8.63-6,15.43-11.08,22.62-15.58,61.13-38.21,127.75-3.57,130,67.88.83,26,.09,52.08.27,78.12.19,27.3-6.82,56.73,21.95,77.86h-75c.16-1.34-.28-3.93.67-4.61,22.43-16.14,21.89-39.34,21.07-63.38-1.11-32.21.45-64.52-1.28-96.68-1.55-28.68-15-51.08-43.66-61.28-36.11-12.84-78.27,16.5-78.29,54.05,0,39.68.63,79.38-.3,119-.4,17.14,1.93,31.8,16.67,42.61,2.68,2,4,5.73,7.85,11.43h-67c12,32.63,7.88,59.74-22.38,75.55-39.33,20.55-74.62,8-108.29-20-3.6,4.91-7,9.7-10.58,14.39-19.37,25.46-50.08,36-79.6,26.75-21.93-6.9-36.43-21.12-39.87-44.53-3-20.27,7.85-41.89,29.14-51.66,20.74-9.51,43-15.76,66.81-24.24-36.54-7.29-65.39-23.95-82.87-56.21s-18.12-65.6-3.71-98.57C7040.38,227.5,7113,200.19,7177.8,239.16ZM7032,295.43c.16,59.71,36.14,110.24,83.19,125.76,39.14,12.91,75.9-8.42,81.43-49.3,7.12-52.58-16.3-92.46-57.6-122.82-22.39-16.47-47.82-22.41-73.63-8.78C7040.17,253.58,7032.22,277.39,7032,295.43Zm106.76,210.31c18.1,21.47,36.51,31.46,59.7,32,21.65.47,36.15-8.64,42.46-26.4A43.42,43.42,0,0,0,7226.76,463c-14.83-11.46-36.6-12.63-51.67.81C7161.57,475.84,7151.06,491.23,7138.72,505.74Z"/><path d="M6206,459.14c0-.33-.4-2.18.21-2.62,24.27-17.6,22.16-43.1,21.95-68.71-.56-67.52-.65-135,.12-202.56.2-17.67-1.69-33.06-16.57-44.66-2.66-2.07-4-5.77-7.25-10.57,6.49-.82,11.15-2.09,15.73-1.88,41.52,1.89,83.93-.62,124.35,7.1,75.42,14.41,128.49,87.52,126.12,165.06-2.37,77.75-59.53,147.86-135.35,157.83C6292.94,463.71,6249.19,459.14,6206,459.14Zm54.68-322.5V453.89c65.15,10.17,110.83-7.79,142.64-59.29,40-64.82,39.38-131.49,1.15-197C6372.62,143,6322.65,127.28,6260.71,136.64Z"/><path d="M5368.24,461.39h-92l25.94-28c-19.85-36.71-39.71-73.44-61.51-113.74-23.91,39.59-45.84,75.88-68.24,113,7,9.14,13.5,17.65,21.82,28.53h-57.07c10.78-12.55,21.64-22.57,29.29-34.61q32.42-51,62.25-103.69c3.47-6.13,3.78-17.23.53-23.43q-36.27-69.19-75-137.1c-6.45-11.29-17-20.24-28-32.9h90L5191.8,157c21,38.61,41.92,77.07,64.94,119.39l71.54-119-22.4-27.16h53.24c-.11,1.35.43,3.7-.48,4.62-40.06,40.37-61,93.1-90.83,140-3.31,5.21-2.82,15.79.26,21.59,23.23,43.83,47.06,87.36,71.83,130.34C5346.75,438.64,5357.4,448.36,5368.24,461.39Z"/><path d="M5071.21,129.43h48.38c.34,2,.71,2.91.5,3.07-25.81,19.44-21.66,47.33-21.52,74.27.24,44,.45,88-.11,132-.44,34.87-7.6,68-33.05,94.11-32.17,33-72,37.86-114,25.88-44.9-12.81-73-43.69-83.93-88.92-2.88-11.9-3.36-24.57-3.47-36.9-.39-44-.29-88-.11-132.06.1-25.2,4.61-51.61-21.57-70.79h74.43c.12.51.94,2.38.56,2.67-23.07,17.21-22.34,41.64-21.82,66.78,1.08,51.43,0,102.92,1.9,154.31.6,16.22,5.48,33.33,12.55,48.06,16,33.37,42,56.27,81.2,55.93,42.45-.36,80.29-27.89,91.91-66.84,5.75-19.27,8-40.05,8.62-60.25,1.26-42.74.45-85.54.37-128.32-.05-25.61,5.81-53.07-24.56-69.52Z"/><path d="M6645.9,283.68c42.23,6.22,75.18,40.59,77.23,80.56,2.37,46.11-28.65,88-75.19,97.44-68.85,14-145.6-29.05-153.67-104.15-5.86-54.55,28.67-112,79.87-129.37,56.92-19.25,119.13.86,147.24,49.91-10.09.5-18.86.68-27.58,1.43-15.8,1.36-31.58,3.05-47.37,4.6-30.43-1.55-60.87-2.71-91.26-4.82-13.55-.95-20.06,4.55-24.39,17.07-20.54,59.48,18.8,133.11,80,148.64,38.13,9.67,83.61-11.92,98.25-46.66,15.1-35.81,1.15-76.11-34.29-98.23C6665.4,294.24,6655.54,289.13,6645.9,283.68Zm33.41-11.7c-13.29-29.46-35.55-39.6-62.74-39.11-29,.51-53.07,11.84-69.85,39.11Z"/><path d="M5718.48,129.21h76c.22,2,.88,3.89.41,4.24-23.19,17.08-22.7,41.44-22.06,66.63,1.35,52.65-.07,105.42,3,157.94,1.12,18.86,8.92,39,19,55.38,46.4,75.34,135.65,44.36,160.28-9.31a157.17,157.17,0,0,0,14.2-58.93c1.9-58.84,1.06-117.78.52-176.67-.06-6.55-4.22-13.57-8-19.42-3.89-6.07-9.58-11-17.07-19.27h52.73c.2.79,1.06,2.67.7,2.95-23,17.3-21.76,41.72-21.54,66.84.45,52,2.22,104.34-2,156.09-5.92,72.1-49.85,111.2-114.37,108.25-67.71-3.09-116.8-53.18-118.16-121.94-.9-45.87-.22-91.76-.24-137.64C5741.92,162.66,5741.93,162.66,5718.48,129.21Z"/><path d="M6014,129.2h76.78c-.25,2.22.2,4.79-.74,5.46-22.2,16-22,38.83-21.62,63,.91,61.88.23,123.79.34,185.68,0,27.38-6.95,56.91,26.7,74.5l-4.22,3h-75.9c.51-1.73.44-4.72,1.82-5.69,20.47-14.56,20.91-35.37,20.62-57.76-.86-64.36-.31-128.74-.31-193.11C6037.46,162.74,6037.46,162.74,6014,129.2Z"/><path d="M6876.05,224c4.13,17.7,8,34.13,11.8,50.56l-3.92,2.17-35.8-31.55c-21.13-18.64-49.95-22-74.56-8.63-20.57,11.15-25,30.95-8.56,47.47,10.32,10.36,23.15,18.79,36.06,25.93,19,10.51,39.77,17.94,58.47,28.9,11.45,6.71,22.71,16,30.16,26.84,26.86,39,7.92,86.46-39.29,93.18-32.16,4.58-65.51.88-100.75.88-3.57-15.68-7.48-32.9-11.4-50.13l3.75-3q18.38,15.68,36.75,31.37c23.34,20,62.15,24.11,89.1,9.43s30.78-41.79,6-59.64c-20-14.38-43.6-23.7-64.28-37.27-19-12.43-39.54-24.84-53.43-42-27.33-33.82-6.39-80.15,36.92-84.07C6819.53,222.06,6846.42,224,6876.05,224Z"/><path d="M6992.76,461.33h-78.07c.79-2.87.69-5.35,1.78-6.09,22.65-15.26,21.37-38.15,20.88-61.38q-1-49.23,0-98.51c.45-21.44,2.88-43-25.94-51.51l2.09-4.26,53.64-16.74c.52,9.86,1.2,17,1.22,24.13.09,53.91.56,107.83-.26,161.72-.25,16.51,2,30.48,16,40.92C6987.25,451.91,6989,456.05,6992.76,461.33Z"/><path d="M5471.06,457.67Q5537.81,293.81,5604.55,130l6.13,2.47L5477.12,460.5Z"/><path d="M6971.42,171.57c-1.73,12.21-8.68,20.22-23,20.16-13.09-.06-22.31-9.53-21.61-22.41.76-14.11,9.21-21.15,22.75-21.73C6961.56,147.08,6971.79,158.28,6971.42,171.57Z"/><line class="cls-1" x1="4608.47" y1="26.13" x2="4608.47" y2="589.99"/><line class="cls-1" x1="7711.23" y1="26.13" x2="7711.23" y2="589.99"/><line class="cls-1" x1="11086.97" y1="26.13" x2="11086.97" y2="589.99"/><line class="cls-1" x1="12219.09" y1="26.13" x2="12219.09" y2="589.99"/><line class="cls-1" x1="14746.85" y1="21.24" x2="14746.85" y2="585.1"/><line class="cls-1" x1="15746.44" y1="21.24" x2="15746.44" y2="585.1"/></svg>