<svg id="Layer_1" data-name="Layer 1" xmlns="http://www.w3.org/2000/svg" viewBox="0 0 3084.84 558.69"><path d="M2774.1,386.46c16.55-9.6,21.51-22.3,21.07-39.68-1.1-43.38-.36-86.8-.36-130.2V197l-26-20.54,57-17.94c1,10.58,1.82,18.81,2.65,27.54,13.74-7.94,25.87-16.71,39.32-22.41,54.92-23.26,110.94,12,112.8,71.22,1.15,36.54.91,73.16.11,109.72-.36,15.88,2.28,29.22,15.62,39.28,3.19,2.4,5.12,6.45,9.41,12.07h-81c3.1-4.84,4.33-8.62,6.93-10.54,15.88-11.67,18.31-27.54,17.65-46-1.14-31.59-.11-63.24-.43-94.86-.2-19.51-3.75-38.16-16.49-54.09-18.69-23.37-45.33-29.88-71.38-15.37-12.24,6.82-22.82,16.62-33.57,24.63,0,54.33-.2,106.39.3,158.45.05,5.52,3.36,11.59,6.68,16.35,4.51,6.46,10.49,11.9,15.84,17.77-.33,1.43-.65,2.86-1,4.29h-62.8c1.4,6.93,2.09,10.46,2.82,14,7.35,35.52-14.91,65.7-51.42,69.74-31.67,3.51-51.88-3.15-83.36-28-2.53,3.21-5.31,6.28-7.55,9.69-17.13,26.09-41.54,36.15-72.14,32.86-23.82-2.55-44.6-20-49.58-41.77s4.95-43.79,27.24-56.11c11.82-6.53,25.17-10.46,38-15,8.73-3.06,17.83-5.08,31.32-8.83-44.17-8.82-74-29.92-89.74-67.86-11.76-28.34-10.84-57.13,1.06-85.14,22.48-52.86,91.06-86.59,162.53-46.13l58.76-31.77v39.07h-45.65c9.44,15.14,19,26.75,24.55,40,25.07,59.61-4,124.61-65.69,146.64-25.15,9-51.66,14.14-76.87,23a187.47,187.47,0,0,0-42.52,21.88c-9.58,6.49-13.55,17.9-9.65,29.85,3.83,11.72,14.35,15,25,16.46,19.4,2.65,37.26-3.11,53.15-13.52,14.51-9.5,27.92-20.67,41.72-31.24,8.39-6.41,16.45-13.25,24.9-19.58C2711.69,373.65,2741.58,367.4,2774.1,386.46Zm-58.71-101.54c-3.52-43.34-25.76-82.94-71.16-106.86-44.25-23.31-88.52,2.06-92.91,51.62-4.13,46.67,24.68,98.7,66.93,119.53,16.24,8,33.15,14,52,8.19C2698.29,348.7,2715,324.78,2715.39,284.92Zm-57.84,154.93c15.75,20.67,34.23,29.6,56.21,31.39,20.61,1.68,37.11-8.29,43.58-25.09s.52-37.4-13.94-48.54-36.73-11.84-51.67,1.87C2678.8,411.34,2668.77,426.34,2657.55,439.85Z"/><path d="M1314.63,173.94l58.21-31.13V182h-45.43c2.95,5.18,3.92,8,5.8,10,48.23,51.05,35,146.43-46.92,176-24.51,8.86-50.19,14.48-75.09,22.36-11.77,3.73-23.63,8.13-34.16,14.39-7.07,4.19-13.36,11.35-17.36,18.63-8.24,15-2.26,28.46,14.12,33.65,23.37,7.4,44.5-.12,63.72-12.57,15.06-9.77,28.68-21.74,43-32.61,11.38-8.61,22.4-17.86,34.5-25.34,17.58-10.85,37-14.62,57.37-9,18.88,5.21,32,16.91,36.54,36.07,4.69,19.76-1.64,36.87-16.5,50.48-22,20.17-63.19,23.06-92.93,6.41-9.09-5.09-17.31-11.7-26.67-18.13-3.95,5.41-7.71,11-11.91,16.25-18.74,23.47-48.62,33.14-77.14,24.24-21.84-6.82-36.89-20.74-39.89-44.35-2.9-22.84,7.27-40.16,26.71-51.1,11.77-6.62,25.09-10.66,37.95-15.17,9.26-3.26,18.93-5.38,29.91-8.42-80.17-26.27-113.9-85.79-87.39-151.6C1172.46,169.27,1240.76,133.05,1314.63,173.94Zm19.8,117.37c-.09-49.42-37.94-103.49-82.69-118.12-37.69-12.32-72.77,8.33-80.09,47.17-9.73,51.59,24.17,110.94,72.53,132.47C1288.88,372.72,1334.11,344.62,1334.43,291.31Zm-56,151.42c16.62,19.65,36.21,28.83,59.92,28.54,20-.24,33.56-10.77,38.82-28.74,5-17.12-1.39-35.1-16.35-45.89-13.1-9.45-33.14-9.55-47.22.19C1297.36,408.09,1286.86,423.78,1278.47,442.73Z"/><path d="M1727,67c54.54-4.73,106.93-9.78,157,8.57,70.21,25.71,113.84,93.67,108.85,165.19C1987.66,315.94,1935.65,377,1861.74,393c-43.57,9.45-87.78,2.84-131.67,4.74q-1.14-1.87-2.26-3.75c3.37-4.57,6.06-9.92,10.25-13.56,10.36-9,12.86-19.89,12.78-33.14-.46-76.2-.65-152.41.11-228.6.16-16.63-2.73-30.36-16.09-41.09C1732.12,75.41,1730.51,71.82,1727,67Zm57.83,323c13.75,0,24.91-.13,36.06,0,39,.56,69.8-16.13,93.75-45.46,53.74-65.8,52-167.09-3.33-231.59-30.54-35.6-84.73-52-126.48-38.15Z"/><path d="M737.13,106.57,711.58,86.29l55.91-17.65c4.76,33.78,1.8,65.7,2.32,97.44.53,32.09.12,64.18,1.76,97.13,23.52-34.9,54.34-61.07,90.93-82.25-3.16-6.75-5.9-12.62-9.69-20.73h59.7c-27.44,18.9-59.34,31.19-85.42,55.51,33.73,59.1,53.86,124.2,96.32,180.11H852.05L867.75,373C846.52,329.2,825,284.9,802.5,238.5c-17.43,19.26-29.58,38-32,61.88a157.59,157.59,0,0,0-.58,16.7c.21,27.35-6.72,56.76,24.51,74.79-14.05,6.73-56,7.9-79.89,3.07,2.42-3.84,3.83-8.05,6.76-10.38,13.41-10.7,16.34-24.25,16.14-40.95-.85-71.86-.36-143.73-.36-215.6Z"/><path d="M1079,354.75c-32.62,41.84-71.91,53.27-113.92,35.47-33.36-14.13-55.11-51.83-47.61-88,3-14.48,11.26-28.71,20.1-40.93,9.68-13.38,25.3-20.25,41.7-22.54,15.06-2.11,30.41-2.12,47.7-3.18-21.17-18.82-46.3-18.45-73-20.54,15.46-31.55,39.08-49.34,71.35-55.75,9-1.8,18.64-1.6,27.89-1,35.68,2.48,57.42,24.19,58.32,59.92q1.48,59.49.14,119.05c-.46,19.5.86,37,18.55,49.28,2.2,1.53,3.19,4.8,6.1,9.43h-54.87C1080.66,383,1079.91,370.45,1079,354.75Zm-.33-34.75a82.88,82.88,0,0,0-21.71-55.7c-18.49-20-48.54-26.57-73.22-15.94-23.39,10.08-37.26,33.28-35.15,59.92,2.35,29.57,17.55,51.33,43.74,64.48C1034.33,393.86,1078.64,366.39,1078.65,320ZM1077,279l4-1.39c-1.21-26.84-.38-54-4.2-80.43-3.75-26-25.83-36.29-50.56-26.83-18.11,6.92-29,20-33.4,39.74C1031.43,220.55,1057.63,245.56,1077,279Z"/><path d="M468.08,396H412.8c-.74-12.95-1.46-25.51-2.35-41.16-14.61,19.55-30,33.7-51.9,40C295.21,413.11,237.12,361,250,296.8c6.56-32.77,33.22-56.07,69.78-59.57,13.87-1.33,28-.22,42.05-.22-20.81-18.53-47.26-20.86-77.06-21.43,16.69-32,40-50.05,72.42-56.4a97.72,97.72,0,0,1,22.3-1.3c40.9,1.55,62.87,23.6,63.59,64.44.55,31,.15,61.94.17,92.91,0,8.67.55,17.38-.12,26-1.3,16.83.9,31.91,16.05,42.68C462.33,386.17,464.06,390.43,468.08,396ZM280.39,307.7c-.89,16.76,7,33.34,19.84,47.49,34.29,37.72,91.16,30.38,106.61-13.47,11.35-32.24-5.65-75-36.11-90.89C327.2,228.18,280.19,256.22,280.39,307.7Zm131.05-28.48c0-16,.56-32.06-.17-48-.62-13.47-1.6-27.12-4.53-40.22s-12.31-20.92-26-23.28c-25.13-4.33-55.3,17.65-54.8,42.9C363.73,221.05,389.84,246.11,411.44,279.22Z"/><path d="M79.16,65.5c8.53-.82,13.34-1.67,18.15-1.69,34.24-.11,68.49-.22,102.73,0,18.18.13,35.62,2.79,52,12.15,36,20.56,49.82,80.69,5.85,108.68-22.49,14.32-45.53,28-69.16,40.31-36.68,19.19-55.95,47-52.9,89.67,2,28.36-6.76,59.13,26.59,78.2l-3.39,2.88H80c4-5.44,6.36-10.57,10.32-13.58,12.31-9.35,14.25-21.57,14.15-36.08-.54-76.22-.69-152.44.09-228.66.18-16.72-2.75-30.31-16.66-40.59C85.13,74.74,83.45,71.15,79.16,65.5Zm58,188c20.26-14.11,39.36-28.64,59.68-41.21,20.55-12.69,38.22-27.57,48.94-49.45,15.28-31.18,3.77-69.94-25.85-83.11C193.71,68,165.87,69.85,137.19,72.8Z"/><path d="M2244,214.91h-70.15c16.24,11.26,35.46,20.24,48.76,34.64,39.64,42.91,21.58,116-32.88,140.18-62,27.52-145-6.6-167.62-68.85-24-66.15,13.27-139.75,81-160.06,46.86-14,100.5,2,131.73,39.44C2237.54,203.47,2239.36,207.39,2244,214.91Zm-180.43-1.3c-3.52,4.73-5.29,6.54-6.37,8.69a91.88,91.88,0,0,0-4.22,10.27c-11.54,32.05-4.87,62.51,9.91,91.41,23.78,46.46,71.72,66.63,118.92,51.36,37-12,58.48-48,51.31-85.88-6.47-34.2-35.76-62.69-76.68-69C2125.35,215.59,2093.51,215.63,2063.57,213.61Zm133.33-6.91c-7.6-22.65-27.8-36.58-54.35-38.37-28-1.89-59.45,14.72-71.48,38.37Z"/><path d="M1606.45,214.85h-70.79c14.59,7.65,26,12.37,36,19.13,27.31,18.38,41.91,43.88,38.64,77.36-3.53,36.16-21.79,63.43-55,78.47-60.42,27.36-142.87-6.36-165.84-66.65-24.87-65.25,9.85-139.9,76.67-160.78,50-15.64,94.72-4.16,131.56,33.89,4.14,4.27,7.28,9.5,10.89,14.28C1607.91,212,1607.18,213.42,1606.45,214.85Zm-178.74.73c-2.76,4.86-4.92,7.93-6.37,11.3-22.18,51.45,9,126.22,61.26,147,46.64,18.56,100.34-2.92,114.6-45.83,13.71-41.22-8.61-83.83-52.49-101.36C1507,211.64,1467.76,215.83,1427.71,215.58ZM1566,207.16c-12.93-27.57-34.07-38.35-59.59-38.47-29.13-.13-53.6,11.54-71.34,38.47Z"/><path d="M685.26,331.27h18.5c-9.39,40.22-61.14,70.27-114.81,67.45-57.51-3-104-47.26-111.7-106.4-7.64-58.44,28.37-112.81,86.9-131.19,50.14-15.75,110.44,6.33,133.35,49.82-20.74,2.86-39.48,5.75-55.2-14-8.11-10.16-21-17.49-33.17-23.27-35.85-17.1-74.1-2.54-90.07,33.82-18.9,43-9.65,83.85,12.72,122.62,14.63,25.35,34.92,45.12,63.61,54.6,31.9,10.53,63.31-1.82,79.46-31.29C678.69,346.46,681.67,339,685.26,331.27Z"/><path d="M2270.32,398.86l-13.54-59.38c6.88,3.87,10.64,5.29,13.53,7.73,10,8.42,19.55,17.28,29.41,25.83,24.24,21,65.63,23.42,92.23,5.38,21-14.24,23.41-36.23,3.94-52.91-12.11-10.38-26.53-18.25-40.5-26.24-17.25-9.86-35.68-17.75-52.53-28.2-14.83-9.19-27.52-21.23-34-38.35-13.61-36.06,5.86-70,44.19-73.18,26.54-2.18,53.4-.42,82.7-.42l11.46,50.94-4.29,2.51c-11.43-10-23.42-19.46-34.16-30.16-18.51-18.44-40.58-20.41-64-14.29-12.83,3.35-24.56,10.23-27.89,24.69-3.39,14.75,4.55,25.93,15.63,33.27,17,11.26,35.36,20.45,53.17,30.47,16.73,9.41,34.71,17.15,50,28.53,22.52,16.81,29.37,41.48,23.16,68.16-5.67,24.4-24.61,38.27-48.14,40.93C2338.12,397.84,2305.1,397.44,2270.32,398.86Z"/><path d="M2456.3,196.49l-26.53-20.18,57-18.37c.59,9.64,1.4,16.73,1.42,23.83.1,53.94.43,107.89-.18,161.83-.18,15.67,1.48,29.36,15.19,39.46,3.59,2.64,5.65,7.35,9.92,13.16H2433c2.88-5.05,3.84-9,6.35-10.78,16.08-11.73,17.54-27.94,17.22-46.13C2455.74,292.22,2456.3,245.1,2456.3,196.49Z"/><path d="M2491.36,106.76c-.48,12.26-10.81,22.27-22.93,22.2-12.77-.07-23.47-11.69-22.51-24.44s10.93-21.36,23.88-20.86A22,22,0,0,1,2491.36,106.76Z"/></svg>