<svg id="Layer_1" data-name="Layer 1" xmlns="http://www.w3.org/2000/svg" viewBox="0 0 2789.7 601.39"><path d="M2408.18,194.88l58.47-31.56v38.62h-46.47c3.54,5.59,4.8,8.23,6.63,10.39,52.74,62.41,27.84,151.65-50,177.57-24.77,8.24-50.62,13.4-75.16,22.23-15.42,5.56-30.87,13.5-43.23,24-6.36,5.38-10.26,20.17-7.45,27.89s15.68,16.71,23.65,16.28c18-1,37.74-3.87,53.08-12.48,22.52-12.64,41.92-30.83,62.46-46.9,30.29-23.7,62.31-33.53,97.59-12.55,17.34-9.69,22-23.59,21.55-42.18-1.15-49.55-.4-99.15-.4-149.39l-26.13-20.14,55.84-17.48c1.3,10.56,2.31,18.81,3.55,28.93,8.63-6,15.43-11.09,22.63-15.58,61.13-38.22,127.74-3.57,130,67.87.83,26,.09,52.08.27,78.12.19,27.31-6.82,56.74,21.95,77.87h-75c.16-1.35-.27-3.93.67-4.61,22.43-16.15,21.9-39.35,21.07-63.39-1.11-32.2.46-64.52-1.28-96.67-1.55-28.68-15-51.09-43.66-61.28-36.11-12.85-78.27,16.49-78.29,54.05,0,39.68.64,79.37-.3,119-.4,17.14,1.93,31.81,16.68,42.61,2.68,2,4,5.73,7.84,11.43h-67c12,32.64,7.88,59.75-22.38,75.56-39.32,20.54-74.62,8.05-108.29-20-3.6,4.9-7,9.7-10.57,14.38-19.38,25.47-50.09,36-79.61,26.76-21.93-6.91-36.42-21.12-39.87-44.54-3-20.27,7.85-41.89,29.14-51.65,20.75-9.52,43-15.77,66.81-24.24-36.54-7.29-65.39-24-82.86-56.22s-18.13-65.6-3.71-98.57C2270.75,183.21,2343.41,155.9,2408.18,194.88Zm-145.85,56.27c.17,59.7,36.14,110.23,83.19,125.75,39.14,12.91,75.9-8.42,81.43-49.3,7.12-52.57-16.3-92.46-57.59-122.82-22.4-16.46-47.83-22.4-73.64-8.78C2270.54,209.3,2262.6,233.1,2262.33,251.15Zm106.76,210.3c18.11,21.47,36.52,31.47,59.71,32,21.64.47,36.14-8.64,42.45-26.39a43.41,43.41,0,0,0-14.12-48.33c-14.82-11.47-36.6-12.63-51.67.8C2391.94,431.55,2381.43,447,2369.09,461.45Z"/><path d="M1436.4,414.85c0-.33-.39-2.17.22-2.61,24.26-17.61,22.16-43.11,21.94-68.72-.56-67.51-.64-135,.12-202.55.2-17.67-1.68-33.07-16.56-44.67-2.67-2.07-4-5.77-7.26-10.57,6.5-.82,11.15-2.09,15.73-1.88,41.52,1.89,83.93-.62,124.35,7.11,75.42,14.41,128.49,87.51,126.13,165.05-2.38,77.76-59.54,147.86-135.36,157.84C1523.31,419.43,1479.56,414.85,1436.4,414.85Zm54.68-322.49V409.6c65.15,10.18,110.83-7.78,142.64-59.29,40-64.81,39.38-131.49,1.15-197C1603,98.69,1553,83,1491.08,92.36Z"/><path d="M598.61,417.1h-92l25.95-28c-19.86-36.71-39.72-73.44-61.51-113.74-23.92,39.59-45.85,75.88-68.25,113l21.83,28.53H367.52c10.78-12.56,21.64-22.58,29.29-34.62q32.42-51,62.26-103.68c3.47-6.14,3.77-17.24.52-23.44q-36.27-69.19-75-137.09c-6.45-11.29-17-20.25-28-32.91h90l-24.39,27.57,64.94,119.4c24.89-41.44,47.93-79.77,71.53-119L536.26,85.91h53.23c-.11,1.34.43,3.69-.48,4.61-40,40.37-61,93.1-90.83,140-3.31,5.21-2.82,15.78.26,21.58C521.67,296,545.5,339.5,570.28,382.48,577.12,394.36,587.77,404.07,598.61,417.1Z"/><path d="M301.59,85.15H350c.34,2,.71,2.9.49,3.06-25.81,19.44-21.66,47.33-21.51,74.27.23,44,.44,88-.12,132.06-.44,34.86-7.6,68-33.05,94.1-32.17,33-72,37.87-114,25.89-44.91-12.82-73-43.69-83.94-88.93C95,313.7,94.48,301,94.37,288.7c-.39-44-.28-88-.1-132,.1-25.21,4.61-51.62-21.57-70.79h74.42c.12.5.94,2.38.56,2.66-23.07,17.21-22.34,41.65-21.82,66.78,1.08,51.43,0,102.92,1.91,154.31.6,16.22,5.47,33.33,12.54,48.06,16,33.38,42,56.27,81.2,55.94,42.45-.36,80.3-27.9,91.91-66.85,5.75-19.26,8-40.05,8.62-60.24,1.26-42.74.45-85.55.37-128.33-.05-25.6,5.82-53.07-24.55-69.52Z"/><path d="M1876.28,239.39c42.23,6.23,75.17,40.59,77.22,80.56,2.37,46.11-28.65,88-75.18,97.44-68.86,14-145.61-29.05-153.68-104.15-5.86-54.54,28.67-112,79.88-129.36,56.91-19.25,119.13.85,147.23,49.9-10.09.51-18.86.69-27.57,1.43-15.81,1.36-31.59,3-47.38,4.6-30.42-1.55-60.87-2.71-91.25-4.82-13.56-.94-20.07,4.56-24.39,17.07-20.55,59.49,18.79,133.11,80,148.65,38.13,9.67,83.6-11.93,98.25-46.67,15.09-35.81,1.14-76.1-34.3-98.22C1895.77,250,1885.91,244.85,1876.28,239.39Zm33.4-11.69c-13.28-29.47-35.55-39.6-62.73-39.12-29,.52-53.08,11.84-69.86,39.12Z"/><path d="M948.85,84.92h76c.23,2,.88,3.89.41,4.24-23.18,17.08-22.7,41.44-22.06,66.63,1.35,52.65-.07,105.42,3,157.94,1.12,18.87,8.91,39,19,55.38,46.39,75.34,135.64,44.37,160.27-9.3a157.22,157.22,0,0,0,14.2-58.93c1.9-58.84,1.06-117.78.52-176.68-.06-6.54-4.22-13.56-8-19.42-3.88-6.07-9.58-11-17.07-19.27h52.73c.2.8,1.06,2.68.7,2.95-23,17.3-21.76,41.72-21.54,66.84.45,52,2.23,104.34-2,156.09-5.91,72.1-49.84,111.2-114.37,108.26-67.7-3.1-116.8-53.19-118.16-121.95-.9-45.86-.22-91.76-.23-137.64C972.29,118.38,972.3,118.38,948.85,84.92Z"/><path d="M1244.36,84.91h76.78c-.25,2.22.2,4.79-.73,5.47-22.21,16-22,38.83-21.63,63,.92,61.88.24,123.79.34,185.69,0,27.37-6.95,56.91,26.7,74.49l-4.22,3h-75.9c.51-1.73.45-4.71,1.82-5.69,20.47-14.56,20.92-35.37,20.62-57.75-.86-64.37-.3-128.75-.3-193.12C1267.84,118.46,1267.84,118.46,1244.36,84.91Z"/><path d="M2106.42,179.73c4.14,17.69,8,34.12,11.81,50.55l-3.92,2.17L2078.5,200.9c-21.13-18.63-50-22-74.56-8.63-20.57,11.16-25,30.95-8.55,47.47,10.31,10.37,23.14,18.8,36.06,25.93,19,10.51,39.76,17.95,58.46,28.91,11.45,6.71,22.71,16,30.16,26.83,26.86,39,7.92,86.47-39.28,93.19-32.17,4.58-65.52.87-100.76.87-3.56-15.67-7.48-32.9-11.4-50.13l3.75-3q18.38,15.69,36.75,31.37c23.34,20,62.15,24.11,89.1,9.43s30.79-41.79,6-59.63c-20-14.39-43.59-23.71-64.27-37.27-19-12.44-39.55-24.84-53.44-42-27.33-33.82-6.39-80.14,36.92-84.07C2049.91,177.77,2076.79,179.73,2106.42,179.73Z"/><path d="M2223.14,417h-78.07c.78-2.87.68-5.35,1.78-6.08,22.64-15.26,21.36-38.15,20.87-61.38q-1-49.24,0-98.52c.45-21.44,2.88-42.95-25.94-51.51.7-1.41,1.39-2.83,2.09-4.25l53.65-16.75c.51,9.87,1.2,17,1.21,24.14.09,53.9.56,107.82-.26,161.71-.25,16.52,1.95,30.49,16,40.93C2217.63,407.63,2219.35,411.77,2223.14,417Z"/><path d="M701.44,413.39Q768.18,249.52,834.93,85.66l6.12,2.47L707.49,416.21Z"/><path d="M2201.79,127.29c-1.73,12.21-8.68,20.21-23,20.15-13.09-.06-22.31-9.52-21.61-22.4.77-14.11,9.21-21.16,22.76-21.74C2191.94,102.79,2202.16,114,2201.79,127.29Z"/></svg>